<?xml version="1.0" standalone="no"?>
<!DOCTYPE svg PUBLIC "-//W3C//DTD SVG 20010904//EN"
 "http://www.w3.org/TR/2001/REC-SVG-20010904/DTD/svg10.dtd">
<svg version="1.0" xmlns="http://www.w3.org/2000/svg"
 width="752.000000pt" height="752.000000pt" viewBox="0 0 752.000000 752.000000"
 preserveAspectRatio="xMidYMid meet">
<metadata>
Created by potrace 1.11, written by Peter Selinger 2001-2013
</metadata>
<g transform="translate(0.000000,752.000000) scale(0.100000,-0.100000)"
fill="#000000" stroke="none">
<path d="M5388 5706 c-1 -2 -50 -6 -108 -10 -58 -3 -116 -8 -130 -10 -14 -3
-54 -7 -88 -11 -287 -28 -724 -142 -1016 -266 -39 -16 -89 -38 -111 -47 -66
-28 -265 -128 -340 -171 -38 -22 -77 -44 -85 -48 -21 -9 -66 -37 -205 -128
-475 -309 -948 -744 -1461 -1345 -49 -57 -96 -114 -106 -125 -147 -180 -225
-277 -333 -415 -71 -91 -132 -167 -135 -170 -3 -3 -34 -43 -70 -90 -35 -47
-67 -87 -70 -90 -3 -3 -21 -25 -39 -50 -19 -25 -43 -54 -52 -65 -10 -11 -50
-60 -90 -110 -40 -49 -75 -92 -79 -95 -3 -3 -13 -14 -21 -26 -27 -40 -154
-179 -259 -284 -177 -177 -345 -289 -485 -324 l-60 -15 80 5 c44 3 98 7 120
10 37 4 52 7 127 20 203 34 481 142 678 262 322 197 542 391 1100 972 287 300
434 444 591 580 125 109 134 117 249 200 220 159 445 277 653 340 24 8 27 6
23 -8 -4 -15 -9 -43 -22 -122 -21 -131 -27 -429 -10 -550 12 -94 12 -90 25
-155 35 -167 91 -327 167 -478 39 -77 130 -231 155 -261 5 -6 28 -36 51 -66
224 -292 560 -528 923 -649 212 -71 380 -96 620 -95 152 0 249 8 355 29 14 3
36 7 50 10 14 3 73 18 132 35 572 163 1044 593 1267 1155 35 90 82 245 95 321
3 16 8 40 11 54 16 80 29 223 28 330 -1 121 -5 221 -10 216 -2 -2 -13 -45 -23
-95 -129 -630 -650 -1121 -1285 -1209 -105 -15 -465 -5 -495 13 -3 2 -21 6
-40 9 -146 23 -385 126 -535 230 -258 178 -432 397 -566 711 -24 54 -50 145
-68 233 -85 407 -11 802 214 1152 24 36 52 76 64 89 11 13 21 27 21 30 0 11
175 188 225 227 28 21 52 41 55 44 3 3 34 25 69 49 147 99 373 192 554 227 48
9 85 19 83 21 -5 5 -382 13 -388 9z"/>
</g>
</svg>
