<svg id="svg" xmlns="http://www.w3.org/2000/svg" xmlns:xlink="http://www.w3.org/1999/xlink" width="400" height="400" viewBox="0, 0, 400,400"><g id="svgg"><path id="path0" d="M105.711 38.795 C 103.849 40.853,103.125 44.569,103.125 52.076 L 103.125 62.500 84.407 62.500 C 57.485 62.500,48.779 66.537,38.920 83.594 L 34.404 91.406 34.424 213.281 C 34.442 327.871,34.614 335.530,37.293 341.406 C 41.579 350.808,47.615 357.123,56.593 361.597 L 64.676 365.625 199.494 365.625 C 339.438 365.625,346.875 365.301,346.875 359.205 C 346.875 358.439,347.754 357.800,348.828 357.784 C 351.630 357.744,360.075 347.031,362.231 340.782 C 364.946 332.910,364.833 96.217,362.109 87.322 C 356.939 70.436,341.669 62.480,314.453 62.492 L 296.875 62.500 296.875 52.405 C 296.875 40.190,293.594 35.938,284.169 35.938 C 276.085 35.938,273.438 40.070,273.438 52.691 L 273.438 62.500 200.176 62.500 L 126.915 62.500 126.299 51.594 C 125.471 36.948,113.895 29.751,105.711 38.795 M103.125 99.486 C 103.125 115.574,104.968 118.750,114.305 118.750 C 124.229 118.750,126.562 115.032,126.563 99.219 L 126.563 85.938 200.000 85.938 L 273.438 85.938 273.438 98.871 C 273.438 115.005,275.515 118.750,284.464 118.750 C 294.559 118.750,296.875 115.105,296.875 99.219 L 296.875 85.938 314.038 85.938 C 330.793 85.938,331.322 86.046,336.303 90.497 L 341.406 95.056 341.961 120.184 L 342.515 145.313 199.242 145.313 L 55.970 145.313 56.500 121.484 C 57.246 88.026,58.769 86.217,86.328 86.043 L 103.125 85.938 103.125 99.486 M341.862 249.837 C 341.354 341.938,342.121 335.772,330.481 341.296 C 322.141 345.253,76.656 344.988,68.861 341.013 C 56.461 334.690,57.084 339.404,56.600 248.324 L 56.169 167.188 199.243 167.188 L 342.317 167.188 341.862 249.837 " stroke="none" fill="#000000" fill-rule="evenodd"></path></g></svg>