<svg id="svg" xmlns="http://www.w3.org/2000/svg" xmlns:xlink="http://www.w3.org/1999/xlink" width="400" height="400" viewBox="0, 0, 400,400"><g id="svgg"><path id="path0" d="M83.373 51.704 C 70.445 55.450,55.102 71.229,51.546 84.435 C 50.472 88.426,50.066 128.762,50.351 203.439 L 50.781 316.406 54.362 323.112 C 58.935 331.677,68.323 341.065,76.888 345.638 L 83.594 349.219 200.000 349.219 L 316.406 349.219 323.112 345.638 C 331.677 341.065,341.065 331.677,345.638 323.112 L 349.219 316.406 349.219 200.000 L 349.219 83.594 345.638 76.888 C 333.720 54.567,324.681 50.894,280.181 50.288 C 238.811 49.724,237.500 50.090,237.500 62.201 C 237.500 73.959,237.959 74.121,273.698 75.000 C 328.417 76.346,324.925 67.825,324.925 200.000 C 324.925 298.594,324.512 306.655,319.081 313.942 C 311.034 324.738,317.052 324.219,200.000 324.219 C 82.948 324.219,88.966 324.738,80.919 313.942 C 75.488 306.655,75.075 298.594,75.075 200.000 C 75.075 67.825,71.583 76.346,126.302 75.000 C 162.041 74.121,162.500 73.959,162.500 62.201 C 162.500 50.421,161.030 49.980,122.266 50.141 C 103.574 50.218,86.072 50.922,83.373 51.704 M190.625 103.125 C 187.587 106.163,187.500 108.333,187.500 180.761 L 187.500 255.272 172.094 240.136 C 151.411 219.816,137.500 218.893,137.500 237.842 C 137.500 248.383,189.402 300.000,200.000 300.000 C 210.598 300.000,262.500 248.383,262.500 237.842 C 262.500 218.893,248.589 219.816,227.906 240.136 L 212.500 255.272 212.500 180.761 C 212.500 96.158,213.095 100.000,200.000 100.000 C 195.833 100.000,192.708 101.042,190.625 103.125 " stroke="none" fill="#000000" fill-rule="evenodd"></path></g></svg>