<svg id="svg" xmlns="http://www.w3.org/2000/svg" xmlns:xlink="http://www.w3.org/1999/xlink" width="400" height="400" viewBox="0, 0, 400,400"><g id="svgg"><path id="path0" d="M203.228 55.906 C 193.035 66.099,200.152 79.688,215.683 79.688 C 283.409 79.688,341.241 145.929,332.896 213.942 C 318.354 332.446,160.209 360.280,105.830 253.906 C 96.817 236.276,89.568 204.969,95.984 211.385 C 99.741 215.143,109.516 214.849,114.633 210.824 C 130.072 198.680,89.158 151.730,71.382 161.191 C 65.543 164.299,39.170 191.996,38.139 196.102 C 34.832 209.282,49.397 219.470,60.465 211.717 C 64.256 209.063,64.413 209.449,66.515 226.563 C 70.818 261.596,97.972 302.772,131.427 324.994 C 167.866 349.197,226.922 356.656,261.719 341.449 C 292.514 327.991,301.847 321.993,318.750 304.796 C 387.345 235.008,372.509 121.457,288.281 71.592 C 283.125 68.539,275.391 64.772,271.094 63.220 C 266.797 61.669,262.578 59.900,261.719 59.289 C 258.457 56.970,236.146 52.833,222.369 51.992 L 208.019 51.116 203.228 55.906 M202.269 110.384 L 198.438 114.519 198.448 159.213 C 198.460 212.344,194.479 202.746,232.031 240.188 C 266.494 274.550,271.372 277.239,280.645 266.993 C 289.099 257.652,286.391 252.832,255.078 221.485 L 226.563 192.938 226.563 152.719 C 226.563 114.583,226.401 112.338,223.438 109.375 C 218.570 104.508,207.214 105.049,202.269 110.384 " stroke="none" fill="#000000" fill-rule="evenodd"></path></g></svg>