<svg id="svg" xmlns="http://www.w3.org/2000/svg" xmlns:xlink="http://www.w3.org/1999/xlink" width="400" height="400" viewBox="0, 0, 400,400"><g id="svgg"><path id="path0" d="M191.883 45.032 C 189.477 45.997,171.307 61.703,163.393 69.660 C 161.613 71.449,148.555 83.353,134.375 96.112 C 120.195 108.871,105.862 121.821,102.523 124.889 C 99.184 127.958,94.533 132.227,92.187 134.375 C 89.842 136.523,85.191 140.789,81.852 143.855 C 78.513 146.920,67.344 157.070,57.031 166.409 C 36.368 185.123,34.511 187.472,34.430 194.999 C 34.288 208.226,42.835 214.063,62.346 214.063 L 75.000 214.063 75.000 281.353 C 75.000 348.287,75.354 353.306,80.312 356.617 C 84.068 359.125,169.367 357.988,173.090 355.380 C 176.538 352.965,176.563 352.634,176.563 309.286 L 176.563 265.625 199.219 265.625 L 221.875 265.625 221.875 307.602 C 221.875 347.703,222.020 349.763,225.113 353.696 L 228.352 357.813 273.438 357.813 L 318.523 357.813 321.762 353.696 C 324.925 349.674,325.000 348.004,325.000 281.821 L 325.000 214.063 337.578 214.063 C 356.703 214.063,364.062 208.641,364.063 194.554 C 364.063 187.252,358.245 180.094,337.767 162.200 L 332.953 157.993 332.492 114.015 L 332.031 70.038 327.647 66.269 C 317.777 57.784,243.750 61.419,243.750 70.389 C 243.750 75.833,241.197 74.431,226.583 60.957 C 208.527 44.309,201.605 41.132,191.883 45.032 M215.653 81.250 C 223.612 88.555,233.717 97.857,238.109 101.922 C 255.602 118.113,265.046 114.888,265.469 92.578 L 265.625 84.375 288.281 84.375 L 310.938 84.375 310.929 126.172 L 310.921 167.969 323.820 180.028 L 336.719 192.087 322.354 192.137 C 301.445 192.210,303.125 185.622,303.125 267.535 L 303.125 335.938 273.438 335.938 L 243.750 335.938 243.750 294.429 C 243.750 238.629,248.226 243.805,199.957 243.774 C 150.986 243.742,156.250 237.900,156.250 292.276 L 156.250 335.938 126.563 335.938 L 96.875 335.938 96.875 267.248 C 96.875 185.755,98.574 192.188,77.049 192.188 C 63.602 192.188,61.574 191.090,67.578 187.064 C 69.512 185.768,73.203 182.643,75.781 180.120 C 78.359 177.597,88.906 167.894,99.219 158.557 C 117.792 141.742,126.163 134.115,134.338 126.563 C 142.388 119.125,166.447 97.225,175.752 88.865 C 180.892 84.247,188.275 77.498,192.158 73.867 C 200.632 65.944,198.112 65.152,215.653 81.250 " stroke="none" fill="#000000" fill-rule="evenodd"></path></g></svg>