<svg id="svg" xmlns="http://www.w3.org/2000/svg" xmlns:xlink="http://www.w3.org/1999/xlink" width="400" height="400" viewBox="0, 0, 400,400"><g id="svgg"><path id="path0" d="M178.125 38.440 C 169.331 41.164,58.879 96.406,51.787 101.628 C 45.170 106.500,42.188 112.242,42.188 120.108 C 42.188 132.407,46.999 136.763,76.988 151.620 L 93.820 159.959 71.144 171.567 C 45.988 184.444,42.187 188.159,42.188 199.871 C 42.188 212.895,46.871 217.346,75.391 231.427 C 95.716 241.462,95.716 239.788,75.391 249.823 C 46.771 263.953,42.178 268.346,42.198 281.563 C 42.220 295.889,40.869 294.957,115.570 332.203 C 182.165 365.406,184.558 366.297,204.538 365.342 L 218.414 364.679 283.035 332.447 C 354.842 296.632,356.361 295.606,357.473 282.201 C 358.478 270.077,352.528 264.134,326.220 250.984 C 315.289 245.520,306.706 240.689,307.147 240.249 C 307.587 239.809,316.679 235.082,327.351 229.745 C 352.749 217.045,358.480 211.192,357.467 198.984 C 356.506 187.397,352.502 183.689,327.154 170.912 C 315.672 165.124,306.504 160.162,306.782 159.885 C 307.059 159.608,315.397 155.238,325.311 150.175 C 353.390 135.833,357.823 131.627,357.802 119.347 C 357.779 105.750,357.700 105.696,285.156 69.258 C 215.496 34.270,203.109 30.703,178.125 38.440 M275.369 89.257 L 335.895 119.598 274.401 150.424 L 212.907 181.250 199.839 181.250 L 186.772 181.250 125.411 150.527 C 91.663 133.629,64.229 119.626,64.447 119.409 C 65.301 118.559,182.219 60.105,185.156 59.060 C 186.875 58.448,194.258 58.165,201.563 58.432 L 214.844 58.916 275.369 89.257 M149.219 187.849 L 177.344 202.257 199.219 202.296 L 221.094 202.335 250.006 187.886 C 284.648 170.574,276.700 170.704,308.823 186.927 L 335.615 200.458 274.448 231.062 L 213.281 261.666 200.781 262.215 L 188.281 262.765 125.935 231.595 L 63.588 200.426 89.997 186.997 C 122.057 170.695,115.552 170.602,149.219 187.849 M144.247 265.813 C 195.180 291.370,204.804 291.370,255.346 265.803 L 280.222 253.219 308.106 267.078 L 335.990 280.938 272.667 312.514 L 209.344 344.090 198.031 343.444 C 187.069 342.818,147.846 324.666,68.882 283.673 L 63.546 280.903 90.757 267.180 C 105.724 259.632,118.192 253.382,118.466 253.291 C 118.739 253.200,130.340 258.834,144.247 265.813 " stroke="none" fill="#000000" fill-rule="evenodd"></path></g></svg>