<svg id="svg" xmlns="http://www.w3.org/2000/svg" xmlns:xlink="http://www.w3.org/1999/xlink" width="400" height="400" viewBox="0, 0, 400,400"><g id="svgg"><path id="path0" d="M91.495 39.410 C 89.920 41.658,89.063 46.343,89.063 52.691 L 89.063 62.500 77.375 62.500 C 58.146 62.500,47.848 68.149,38.920 83.594 L 34.404 91.406 34.390 179.561 L 34.375 267.716 39.171 276.214 C 50.224 295.800,53.956 296.875,110.868 296.875 C 161.563 296.875,162.519 296.678,162.476 286.240 C 162.424 273.787,160.997 273.437,110.171 273.437 L 67.011 273.438 62.573 268.578 C 56.332 261.745,56.250 260.817,56.250 196.680 L 56.250 139.063 171.875 139.063 L 287.500 139.063 287.500 149.701 C 287.500 166.008,297.451 173.004,307.025 163.429 L 311.155 159.299 310.656 125.353 C 309.921 75.395,300.830 62.500,266.348 62.500 L 254.688 62.500 254.688 51.344 C 254.688 38.519,252.894 36.069,243.448 35.987 C 235.471 35.918,232.813 40.094,232.813 52.691 L 232.813 62.500 172.656 62.500 L 112.500 62.500 112.500 52.405 C 112.500 37.308,98.872 28.878,91.495 39.410 M89.063 95.102 C 89.063 106.645,92.945 112.500,100.600 112.500 C 109.146 112.500,112.500 107.859,112.500 96.033 L 112.500 85.938 172.480 85.938 L 232.460 85.938 233.088 97.045 C 234.355 119.484,254.688 119.823,254.688 97.405 L 254.688 85.938 264.770 85.938 C 281.766 85.938,287.500 91.667,287.500 108.647 L 287.500 117.188 171.661 117.188 L 55.822 117.188 56.625 107.190 C 57.922 91.026,63.076 86.219,79.297 86.043 L 89.063 85.938 89.063 95.102 M255.469 187.431 C 248.499 188.611,232.737 195.148,224.219 200.392 C 186.675 223.505,173.750 280.675,196.914 321.162 C 201.337 328.893,220.848 350.000,223.571 350.000 C 224.280 350.000,227.307 351.660,230.296 353.688 C 276.703 385.181,348.703 353.968,362.302 296.462 C 367.509 274.443,357.639 223.438,348.171 223.438 C 347.458 223.438,346.875 222.629,346.875 221.641 C 346.875 219.181,331.876 204.830,324.219 199.963 C 305.452 188.037,279.662 183.336,255.469 187.431 M298.694 213.389 C 343.513 232.253,355.609 286.994,322.524 321.228 C 263.294 382.513,171.181 299.742,223.897 232.604 C 240.238 211.794,274.184 203.073,298.694 213.389 M240.323 240.234 C 233.922 247.688,235.740 253.492,248.546 266.472 L 257.860 275.913 248.357 285.222 C 237.641 295.719,235.370 299.868,237.408 305.226 C 242.068 317.484,249.694 317.089,262.876 303.906 C 268.462 298.320,273.595 293.750,274.282 293.750 C 274.969 293.750,280.265 298.320,286.051 303.906 C 297.868 315.314,302.330 316.562,308.665 310.227 C 315.432 303.460,313.995 298.120,302.093 285.792 L 291.686 275.012 301.430 265.507 C 312.422 254.785,314.817 248.300,310.320 241.437 C 305.328 233.818,297.892 235.793,285.586 248.005 L 275.000 258.510 264.414 248.005 C 252.899 236.579,245.510 234.195,240.323 240.234 " stroke="none" fill="#000000" fill-rule="evenodd"></path></g></svg>