<svg id="svg" xmlns="http://www.w3.org/2000/svg" xmlns:xlink="http://www.w3.org/1999/xlink" width="400" height="400" viewBox="0, 0, 400,400"><g id="svgg"><path id="path0" d="M131.921 38.224 C 87.964 48.991,67.274 106.791,93.653 145.131 C 95.962 148.486,96.332 151.389,95.718 161.328 C 94.878 174.936,95.504 174.538,81.418 170.415 C 75.740 168.753,68.633 167.171,65.625 166.900 L 60.156 166.406 59.743 215.234 C 59.406 255.079,59.714 264.063,61.413 264.062 C 62.558 264.062,67.248 262.948,71.834 261.586 C 76.420 260.224,83.578 258.572,87.742 257.913 L 95.313 256.717 95.313 267.421 L 95.313 278.125 150.169 278.125 L 205.026 278.125 204.114 281.761 C 203.612 283.760,202.489 297.844,201.619 313.057 C 200.748 328.270,199.721 342.279,199.336 344.187 C 198.950 346.095,198.233 351.699,197.741 356.641 L 196.848 365.625 234.291 365.625 L 271.733 365.625 272.559 360.547 C 274.060 351.312,279.688 291.458,279.688 284.729 L 279.688 278.125 302.376 278.125 L 325.065 278.125 324.965 214.022 C 324.911 178.765,325.172 149.410,325.545 148.788 C 338.535 127.169,341.610 110.924,336.852 89.062 C 325.080 34.969,255.747 17.123,216.797 58.161 C 212.715 62.461,209.375 65.350,209.375 64.580 C 209.375 62.046,195.027 48.567,187.856 44.365 C 174.336 36.442,150.072 33.778,131.921 38.224 M172.309 64.419 C 187.077 72.281,198.351 89.526,198.421 104.363 C 198.437 107.826,198.836 107.929,210.547 107.488 L 222.656 107.031 223.627 99.219 C 227.234 70.197,262.326 50.740,287.500 63.805 C 324.102 82.802,323.406 130.803,286.282 147.788 L 278.032 151.563 210.501 151.547 L 142.969 151.532 134.545 147.611 C 99.261 131.186,97.222 83.421,131.023 65.092 C 143.426 58.366,160.418 58.089,172.309 64.419 M301.563 214.844 L 301.563 253.125 210.938 253.125 L 120.313 253.125 120.313 238.957 C 120.313 226.176,120.045 224.874,117.578 225.655 C 115.050 226.455,86.003 232.813,84.876 232.813 C 84.600 232.813,84.375 224.650,84.375 214.674 L 84.375 196.536 88.672 197.634 C 91.035 198.237,97.891 199.748,103.906 200.990 C 109.922 202.232,116.074 203.619,117.578 204.073 C 120.042 204.816,120.313 203.496,120.313 190.730 L 120.313 176.563 210.938 176.563 L 301.563 176.563 301.563 214.844 M253.680 296.484 C 252.615 306.582,251.703 320.645,251.653 327.734 L 251.563 340.625 237.500 340.625 C 229.766 340.625,223.438 340.419,223.438 340.167 C 223.438 339.914,224.844 326.058,226.563 309.375 C 228.281 292.692,229.688 278.836,229.688 278.583 C 229.688 278.331,235.521 278.125,242.651 278.125 L 255.615 278.125 253.680 296.484 " stroke="none" fill="#000000" fill-rule="evenodd"></path></g></svg>