<svg id="svg" xmlns="http://www.w3.org/2000/svg" xmlns:xlink="http://www.w3.org/1999/xlink" width="400" height="400" viewBox="0, 0, 400,400"><g id="svgg"><path id="path0" d="M316.591 37.055 C 315.976 37.669,312.519 39.000,308.909 40.012 C 305.298 41.024,297.422 43.711,291.406 45.983 C 277.244 51.332,260.239 57.508,252.344 60.171 C 248.906 61.330,240.469 64.359,233.594 66.900 C 221.240 71.468,217.616 72.766,202.344 78.101 C 193.163 81.308,174.543 88.135,162.763 92.612 C 151.180 97.015,151.562 94.093,151.563 178.132 L 151.563 252.935 140.654 249.124 C 80.097 227.966,32.630 301.261,77.058 347.324 C 107.483 378.868,161.238 367.387,176.372 326.113 C 179.622 317.248,179.688 315.104,179.688 217.150 L 179.688 117.229 185.547 114.777 C 188.770 113.429,195.625 110.872,200.781 109.095 C 215.608 103.986,229.575 98.996,241.406 94.581 C 247.422 92.336,255.156 89.538,258.594 88.364 C 262.031 87.190,274.947 82.648,287.294 78.271 C 299.642 73.894,310.013 70.313,310.341 70.313 C 310.669 70.313,310.938 99.227,310.938 134.566 C 310.938 185.691,310.538 198.528,308.984 197.389 C 269.779 168.656,208.983 214.357,221.155 263.411 C 235.947 323.028,321.198 325.565,336.827 266.854 C 340.156 254.347,340.110 48.745,336.777 42.299 C 333.757 36.459,320.604 33.042,316.591 37.055 M292.741 221.771 C 312.861 230.937,316.701 256.553,300.370 272.654 C 277.144 295.551,239.701 270.357,250.213 238.905 C 255.682 222.541,276.245 214.257,292.741 221.771 M135.927 278.714 C 150.814 288.566,155.717 305.917,147.552 319.850 C 130.856 348.339,89.063 337.904,89.063 305.247 C 89.062 280.507,115.779 265.381,135.927 278.714 " stroke="none" fill="#000000" fill-rule="evenodd"></path></g></svg>