<svg id="svg" xmlns="http://www.w3.org/2000/svg" xmlns:xlink="http://www.w3.org/1999/xlink" width="400" height="400" viewBox="0, 0, 400,400"><g id="svgg"><path id="path0" d="M165.178 27.480 C 52.387 47.868,-10.502 176.727,41.734 280.416 C 100.189 396.449,264.475 410.632,340.792 306.234 C 435.804 176.261,323.988 -1.227,165.178 27.480 M239.844 46.792 C 357.017 78.848,397.230 223.232,313.342 310.684 C 236.388 390.906,103.089 369.090,55.531 268.490 C 15.191 183.157,59.034 80.211,148.611 49.930 C 174.362 41.225,214.453 39.846,239.844 46.792 M168.750 117.969 L 168.750 129.688 200.781 129.688 L 232.813 129.688 232.813 117.969 L 232.813 106.250 200.781 106.250 L 168.750 106.250 168.750 117.969 M168.750 152.344 L 168.750 164.063 200.781 164.063 L 232.813 164.063 232.813 152.344 L 232.813 140.625 200.781 140.625 L 168.750 140.625 168.750 152.344 M168.570 175.358 C 168.471 176.450,168.538 184.551,168.720 193.359 L 169.049 209.375 146.947 209.375 C 128.528 209.375,125.053 209.737,126.094 211.545 C 128.059 214.957,199.705 287.500,201.111 287.500 C 202.691 287.500,278.125 212.114,278.125 210.535 C 278.125 209.897,267.953 209.375,255.520 209.375 L 232.915 209.375 232.473 191.797 L 232.031 174.219 200.391 173.796 C 175.696 173.466,168.710 173.809,168.570 175.358 " stroke="none" fill="#000000" fill-rule="evenodd"></path></g></svg>