<svg id="svg" xmlns="http://www.w3.org/2000/svg" xmlns:xlink="http://www.w3.org/1999/xlink" width="400" height="400" viewBox="0, 0, 400,400"><g id="svgg"><path id="path0" d="M46.094 88.906 C 25.520 97.972,34.003 130.827,56.688 129.938 C 84.569 128.845,86.203 89.505,58.430 88.021 C 53.364 87.751,47.813 88.149,46.094 88.906 M106.651 89.108 C 94.434 94.019,93.487 118.179,105.199 126.172 L 110.350 129.688 220.168 129.688 C 328.870 129.688,330.033 129.654,334.548 126.439 C 347.162 117.458,346.374 93.922,333.294 88.949 C 328.338 87.064,111.354 87.217,106.651 89.108 M110.191 180.238 C 94.831 184.868,91.655 209.116,105.199 218.359 L 110.350 221.875 230.197 221.875 L 350.044 221.875 355.290 218.436 C 369.165 209.341,366.259 184.914,350.746 180.238 C 341.856 177.559,119.081 177.559,110.191 180.238 M46.094 181.094 C 31.817 187.384,30.364 208.692,43.586 217.855 C 64.897 232.624,90.273 205.397,72.883 186.421 C 67.326 180.358,53.847 177.678,46.094 181.094 M111.338 271.836 C 99.231 274.710,93.466 288.484,98.503 302.501 C 102.464 313.527,100.241 313.233,183.158 313.716 L 257.723 314.150 263.118 310.613 C 277.927 300.906,273.978 275.744,257.031 271.830 C 249.559 270.105,118.609 270.109,111.338 271.836 M41.229 277.007 C 26.324 290.667,36.547 314.063,57.422 314.063 C 78.972 314.063,86.716 278.492,66.406 272.794 C 56.924 270.134,46.898 271.812,41.229 277.007 " stroke="none" fill="#000000" fill-rule="evenodd"></path></g></svg>