<svg id="svg" xmlns="http://www.w3.org/2000/svg" xmlns:xlink="http://www.w3.org/1999/xlink" width="400" height="400" viewBox="0, 0, 400,400"><g id="svgg"><path id="path0" d="M57.292 57.292 C 55.408 59.176,56.133 85.195,58.125 87.188 C 59.171 88.234,64.178 89.060,69.453 89.058 C 88.888 89.048,121.792 96.606,153.906 108.458 C 209.067 128.815,271.185 190.933,291.542 246.094 C 303.421 278.281,310.952 311.114,310.942 330.668 C 310.936 343.253,311.982 343.986,329.142 343.422 L 342.969 342.969 343.452 332.813 C 343.894 323.532,343.024 314.876,338.980 288.281 C 334.801 260.801,311.470 201.734,299.881 189.295 C 298.228 187.520,296.875 185.722,296.875 185.300 C 296.875 184.588,291.042 176.085,283.594 165.938 C 274.413 153.432,246.568 125.587,234.062 116.406 C 223.915 108.958,215.412 103.125,214.700 103.125 C 214.278 103.125,212.510 101.800,210.772 100.181 C 198.120 88.394,138.947 65.128,110.938 60.927 C 105.352 60.089,96.211 58.708,90.625 57.858 C 78.994 56.088,58.838 55.746,57.292 57.292 M58.139 144.964 C 56.683 145.969,56.248 150.240,56.576 160.288 L 57.031 174.219 62.500 175.307 C 65.508 175.905,75.139 177.535,83.903 178.927 C 153.875 190.047,209.953 246.125,221.073 316.097 C 222.465 324.861,224.095 334.492,224.693 337.500 L 225.781 342.969 240.111 343.416 C 253.683 343.840,254.498 343.683,255.529 340.435 C 258.723 330.372,250.609 283.525,243.186 269.171 C 241.778 266.447,240.625 263.570,240.625 262.779 C 240.625 255.394,214.680 217.566,198.557 201.443 C 182.434 185.320,144.606 159.375,137.221 159.375 C 136.430 159.375,133.553 158.222,130.829 156.814 C 115.744 149.013,64.392 140.641,58.139 144.964 M89.187 243.028 C 85.388 244.260,80.772 246.685,78.930 248.415 C 77.087 250.146,74.891 251.563,74.048 251.563 C 73.206 251.563,69.924 254.963,66.755 259.119 C 50.938 279.859,52.057 310.558,69.317 329.433 C 85.869 347.533,119.777 349.339,140.881 333.245 C 145.037 330.076,148.438 326.682,148.437 325.702 C 148.437 324.723,149.819 322.672,151.508 321.143 C 160.022 313.438,161.862 284.127,154.745 269.572 C 143.430 246.430,114.638 234.773,89.187 243.028 M120.313 279.688 C 127.796 287.171,128.668 294.390,123.075 302.552 C 115.135 314.141,97.643 313.622,91.433 301.614 C 81.217 281.859,104.674 264.049,120.313 279.688 " stroke="none" fill="#000000" fill-rule="evenodd"></path></g></svg>