<svg id="svg" xmlns="http://www.w3.org/2000/svg" xmlns:xlink="http://www.w3.org/1999/xlink" width="400" height="400" viewBox="0, 0, 400,400"><g id="svgg"><path id="path0" d="M50.233 52.798 C 47.202 57.054,46.875 59.538,46.875 78.281 C 46.875 102.932,49.303 107.797,61.620 107.829 C 69.087 107.848,98.637 112.872,110.938 116.214 C 118.930 118.386,123.971 120.208,142.188 127.511 C 151.887 131.400,171.285 141.584,179.375 147.035 C 183.071 149.525,186.762 151.563,187.578 151.563 C 188.395 151.563,189.063 152.103,189.063 152.763 C 189.063 153.423,190.749 155.005,192.811 156.279 C 205.375 164.038,235.962 194.625,243.721 207.189 C 244.995 209.251,246.577 210.938,247.237 210.938 C 247.897 210.938,248.438 211.605,248.438 212.422 C 248.438 213.238,250.475 216.929,252.965 220.625 C 273.208 250.667,292.095 307.500,292.171 338.601 C 292.202 351.111,296.243 353.125,321.314 353.125 C 340.471 353.125,342.935 352.805,347.202 349.767 L 351.918 346.409 351.172 326.720 C 349.576 284.592,333.431 234.854,307.686 192.752 C 278.527 145.066,223.051 95.330,177.934 76.425 C 173.312 74.489,168.823 72.376,167.956 71.731 C 165.173 69.657,140.509 61.269,125.781 57.387 C 102.420 51.229,91.640 49.466,73.280 48.798 L 53.591 48.082 50.233 52.798 M51.682 161.858 L 46.875 165.903 46.875 186.647 C 46.875 211.945,48.154 214.578,61.278 216.279 C 76.603 218.266,96.268 224.038,106.250 229.480 C 110.117 231.588,114.677 234.079,116.383 235.016 C 133.123 244.208,155.792 266.877,164.984 283.617 C 176.105 303.870,178.234 309.771,182.171 331.250 C 186.097 352.672,186.729 353.125,212.707 353.125 L 233.053 353.125 237.620 348.558 C 254.876 331.302,224.700 254.132,185.284 214.716 C 146.341 175.773,70.707 145.849,51.682 161.858 M75.586 270.145 C 53.613 275.796,40.422 305.327,50.099 327.203 C 69.117 370.197,130.469 357.934,130.469 311.139 C 130.469 280.224,106.373 262.227,75.586 270.145 " stroke="none" fill="#000000" fill-rule="evenodd"></path></g></svg>