<svg id="svg" xmlns="http://www.w3.org/2000/svg" xmlns:xlink="http://www.w3.org/1999/xlink" width="400" height="400" viewBox="0, 0, 400,400"><g id="svgg"><path id="path0" d="M170.945 38.912 C 162.705 42.654,157.777 50.650,155.602 63.804 C 152.803 80.737,145.116 83.206,131.789 71.454 C 112.727 54.644,64.063 85.703,64.063 114.680 C 64.062 123.667,65.378 126.695,75.576 141.183 C 78.084 144.745,78.226 145.985,76.580 149.957 C 74.524 154.922,74.323 155.020,60.156 157.999 C 38.841 162.482,33.962 171.030,34.652 202.675 C 35.313 232.979,41.408 241.965,63.019 244.500 C 77.807 246.235,81.940 253.297,74.147 263.514 C 58.868 283.546,60.977 295.510,83.768 318.097 C 104.941 339.081,115.221 341.284,133.806 328.821 C 148.695 318.837,154.312 320.494,155.774 335.303 C 157.968 357.515,167.456 364.637,195.821 365.363 C 229.925 366.237,238.020 361.553,243.054 338.034 C 246.763 320.710,252.152 317.717,263.457 326.704 C 282.453 341.805,295.006 339.214,318.209 315.404 C 337.632 295.473,339.741 282.362,326.393 264.515 L 320.304 256.373 322.869 250.995 C 325.449 245.586,329.423 243.750,338.554 243.750 C 356.216 243.750,364.063 230.256,364.063 199.883 C 364.063 168.764,359.622 161.595,337.385 156.817 C 320.081 153.098,317.887 148.578,327.030 135.489 C 340.234 116.586,337.474 103.451,315.881 82.435 C 296.760 63.824,280.948 60.036,267.586 70.865 C 252.631 82.983,246.126 80.800,242.214 62.349 C 237.455 39.903,230.900 35.920,198.797 35.972 C 181.269 36.000,176.173 36.538,170.945 38.912 M215.557 58.238 C 218.636 59.797,219.786 62.187,221.369 70.325 C 225.035 89.162,226.129 91.650,231.647 93.679 C 234.437 94.705,240.426 97.250,244.956 99.334 C 256.202 104.509,260.060 104.161,269.389 97.130 C 286.015 84.600,287.483 84.720,302.043 99.802 C 313.710 111.888,314.832 115.727,308.799 122.927 C 296.062 138.125,294.819 142.865,300.558 154.349 C 302.583 158.402,304.704 163.643,305.270 165.996 C 306.683 171.866,311.021 174.151,326.880 177.378 C 339.589 179.964,340.586 180.452,342.114 184.837 C 344.472 191.601,344.126 210.139,341.525 216.363 C 339.177 221.983,339.174 221.984,321.224 224.285 C 311.006 225.595,306.625 228.741,304.612 236.218 C 303.695 239.622,301.582 244.643,299.916 247.376 C 295.010 255.421,295.980 260.562,304.688 272.656 C 314.762 286.650,314.687 287.174,300.510 301.742 C 286.965 315.661,286.260 315.862,276.563 308.561 C 263.029 298.372,257.424 296.203,251.381 298.817 C 248.473 300.075,242.227 302.753,237.500 304.767 C 226.094 309.630,226.989 308.349,223.350 325.024 C 219.105 344.470,220.006 343.750,199.922 343.750 C 180.217 343.750,176.571 341.462,176.554 329.086 C 176.532 313.155,173.429 309.076,156.195 302.322 C 141.274 296.475,139.890 296.755,123.603 308.930 C 114.081 316.049,113.133 315.744,98.624 300.879 L 85.756 287.696 88.134 283.098 C 89.442 280.569,92.295 276.380,94.475 273.790 C 96.654 271.200,98.437 268.604,98.437 268.022 C 98.437 267.440,99.492 265.910,100.781 264.621 C 104.167 261.235,103.754 258.428,97.740 243.953 C 90.505 226.538,85.849 223.438,66.927 223.438 C 58.288 223.437,56.250 219.134,56.250 200.893 C 56.250 181.341,56.508 180.972,72.097 178.216 C 88.170 175.375,90.776 173.647,95.057 162.992 C 97.066 157.995,99.351 152.685,100.136 151.193 C 100.920 149.701,101.559 146.537,101.554 144.162 C 101.546 139.826,100.400 137.664,91.016 124.276 C 83.972 114.226,84.321 113.053,98.433 99.319 C 110.813 87.271,116.379 85.004,120.297 90.410 C 127.651 100.556,143.883 105.414,152.624 100.084 C 155.357 98.418,160.377 96.305,163.781 95.388 C 171.132 93.409,174.281 88.051,175.773 74.981 C 177.363 61.050,177.884 59.723,182.419 58.067 C 188.591 55.813,210.993 55.929,215.557 58.238 M182.813 137.315 C 146.622 145.319,125.326 187.574,139.266 223.720 C 165.210 290.997,263.053 272.830,263.234 200.703 C 263.345 156.262,226.927 127.557,182.813 137.315 M219.935 162.633 C 245.994 178.221,249.895 213.878,227.603 232.730 C 187.563 266.592,133.270 212.476,167.188 172.510 C 179.294 158.244,204.658 153.495,219.935 162.633 " stroke="none" fill="#000000" fill-rule="evenodd"></path></g></svg>