<svg id="svg" xmlns="http://www.w3.org/2000/svg" xmlns:xlink="http://www.w3.org/1999/xlink" width="400" height="400" viewBox="0, 0, 400,400"><g id="svgg"><path id="path0" d="M141.918 50.229 C 137.238 51.925,134.136 58.714,135.468 64.347 C 135.939 66.339,144.136 75.879,153.684 85.547 L 171.043 103.125 112.954 103.125 L 54.865 103.125 52.432 106.598 C 48.747 111.859,48.747 299.079,52.432 304.340 C 54.851 307.792,55.127 307.813,100.089 307.813 L 145.313 307.813 145.313 317.188 L 145.313 326.563 121.875 326.563 C 94.775 326.563,92.188 327.644,92.188 338.974 C 92.188 350.572,86.599 350.000,200.000 350.000 C 313.401 350.000,307.813 350.572,307.813 338.974 C 307.813 327.644,305.225 326.563,278.125 326.563 L 254.688 326.563 254.688 317.188 L 254.688 307.813 299.911 307.813 C 344.873 307.813,345.149 307.792,347.568 304.340 C 351.253 299.079,351.253 111.859,347.568 106.598 L 345.135 103.125 287.046 103.125 L 228.957 103.125 246.316 85.547 C 264.324 67.311,266.447 63.762,263.831 56.257 C 259.159 42.856,250.678 46.440,223.446 73.320 C 211.192 85.416,200.619 95.313,199.950 95.313 C 199.281 95.313,189.661 86.348,178.573 75.391 C 150.326 47.479,150.043 47.284,141.918 50.229 M326.563 205.469 L 326.563 284.375 200.000 284.375 L 73.438 284.375 73.438 205.469 L 73.438 126.563 200.000 126.563 L 326.563 126.563 326.563 205.469 M231.250 317.188 L 231.250 326.563 200.000 326.563 L 168.750 326.563 168.750 317.188 L 168.750 307.813 200.000 307.813 L 231.250 307.813 231.250 317.188 " stroke="none" fill="#000000" fill-rule="evenodd"></path></g></svg>