<svg id="svg" xmlns="http://www.w3.org/2000/svg" xmlns:xlink="http://www.w3.org/1999/xlink" width="400" height="400" viewBox="0, 0, 400,400"><g id="svgg"><path id="path0" d="M175.000 42.195 C 104.263 65.756,82.435 146.101,132.484 198.694 C 142.673 209.401,142.656 209.101,133.311 213.151 C 124.384 217.020,110.373 225.154,109.635 226.895 C 109.349 227.572,108.188 228.125,107.054 228.125 C 103.449 228.125,74.161 257.295,66.711 268.307 C 50.213 292.691,41.219 317.936,39.599 344.409 L 38.588 360.938 52.106 360.938 L 65.625 360.938 65.625 353.512 C 65.625 275.257,155.444 209.575,232.660 231.364 C 243.018 234.286,269.677 245.823,271.875 248.334 C 272.305 248.825,276.523 252.180,281.250 255.790 C 310.936 278.463,332.813 320.084,332.813 353.890 L 332.813 360.938 346.094 360.938 L 359.375 360.938 359.375 347.040 C 359.375 337.934,358.354 329.718,356.414 323.211 C 354.786 317.750,352.989 311.245,352.421 308.757 C 344.657 274.729,306.424 232.382,266.742 213.857 L 256.139 208.907 264.078 200.938 C 276.099 188.871,275.967 189.053,282.844 175.312 C 296.113 148.801,294.796 102.075,280.321 85.814 C 279.113 84.458,278.122 82.700,278.118 81.908 C 278.081 74.388,250.077 52.163,231.741 45.102 C 219.628 40.438,185.521 38.690,175.000 42.195 M218.220 70.036 C 291.314 92.853,275.153 197.740,198.561 197.630 C 136.663 197.542,110.671 123.589,157.813 81.695 C 159.961 79.786,162.271 78.202,162.946 78.174 C 163.620 78.147,166.043 76.895,168.329 75.391 C 180.406 67.445,202.369 65.087,218.220 70.036 " stroke="none" fill="#000000" fill-rule="evenodd"></path></g></svg>