<?xml version="1.0" encoding="UTF-8"?>
<svg width="512px" height="512px" viewBox="0 0 512 512" xmlns="http://www.w3.org/2000/svg" xmlns:xlink="http://www.w3.org/1999/xlink" version="1.1">
 <!-- Generated by Pixelmator Pro 1.6 -->
 <path id="Path" d="M160.154 224.87 L97.567 128.696 C136.561 80.2 195.051 53.494 254.853 53.248 289.505 53.002 324.895 61.85 357.089 80.445 392.642 101.089 419.676 130.744 436.879 164.823 L268.698 155.976 C221.102 153.19 175.8 179.978 160.154 224.87 Z M187.105 256.41 C187.105 294.257 217.743 324.895 255.59 324.895 293.437 324.895 324.075 294.257 324.075 256.41 324.075 218.563 293.437 187.924 255.59 187.924 217.743 187.924 187.105 218.481 187.105 256.41 Z M445.071 183.337 L330.629 189.235 C361.677 225.526 362.168 277.873 336.036 318.013 L244.203 459.244 C282.296 461.292 321.536 452.936 357.089 432.292 445.071 381.501 480.706 275.005 445.071 183.337 Z M161.956 295.404 L85.524 145.08 C64.635 177.029 52.429 215.368 52.429 256.41 52.429 357.99 126.812 442.122 224.051 457.032 L276.234 354.796 C229.048 363.643 183.501 337.756 161.956 295.404 Z" fill="#000000" fill-opacity="1" stroke="none"/>
</svg>
