<svg id="svg" xmlns="http://www.w3.org/2000/svg" xmlns:xlink="http://www.w3.org/1999/xlink" width="400" height="400" viewBox="0, 0, 400,400"><g id="svgg"><path id="path0" d="M82.813 36.795 C 73.142 38.684,63.748 46.325,59.142 56.048 L 56.641 61.328 56.641 181.250 L 56.641 301.172 58.453 305.078 C 62.818 314.483,70.550 321.435,79.871 324.336 C 85.805 326.183,275.798 326.638,275.762 324.805 C 275.752 324.268,274.014 317.860,271.901 310.566 C 269.789 303.272,268.127 297.250,268.210 297.183 C 268.292 297.115,276.094 304.273,285.547 313.088 C 295.000 321.903,311.875 337.227,323.047 347.141 L 343.359 365.167 343.570 217.935 C 343.715 117.280,343.520 68.989,342.955 65.284 C 340.763 50.916,329.719 39.337,315.714 36.723 C 310.433 35.737,87.875 35.807,82.813 36.795 M175.000 113.998 C 175.000 114.393,172.100 115.670,168.555 116.836 C 156.717 120.731,142.778 127.966,134.041 134.752 C 130.866 137.219,133.692 136.687,139.634 133.699 C 167.769 119.553,206.127 116.364,237.891 125.529 C 245.074 127.602,260.033 133.653,262.847 135.624 C 265.145 137.234,266.082 136.956,264.448 135.150 C 260.293 130.559,241.817 120.702,230.689 117.139 C 225.984 115.633,225.204 115.149,225.977 114.217 C 229.216 110.315,257.785 119.594,269.544 128.368 C 280.335 136.419,296.020 192.324,296.087 222.974 C 296.106 231.807,273.612 246.325,255.469 249.187 C 246.826 250.551,246.871 250.566,241.984 244.626 C 236.206 237.602,236.168 237.917,243.164 234.849 C 251.500 231.194,256.048 228.126,261.314 222.605 C 266.311 217.365,266.537 216.099,261.959 218.989 C 228.093 240.367,179.032 241.072,143.439 220.691 C 135.866 216.355,135.370 216.636,140.681 222.251 C 145.732 227.592,151.918 231.808,159.062 234.778 C 162.027 236.010,164.584 237.112,164.744 237.225 C 164.905 237.339,162.642 240.301,159.717 243.809 L 154.397 250.186 149.531 249.687 C 133.289 248.023,116.567 239.683,108.194 229.069 L 105.292 225.391 105.747 215.976 C 107.173 186.447,120.756 139.080,130.511 129.613 C 138.784 121.585,175.000 108.874,175.000 113.998 M164.453 174.612 C 157.882 176.938,153.139 184.261,153.129 192.097 C 153.105 211.028,176.642 217.845,184.758 201.258 C 192.294 185.854,179.633 169.239,164.453 174.612 M224.405 174.480 C 214.148 178.200,209.720 191.302,215.271 201.506 C 222.138 214.127,238.923 213.529,245.015 200.446 C 251.828 185.815,238.712 169.292,224.405 174.480 " stroke="none" fill="#000000" fill-rule="evenodd"></path></g></svg>