<?xml version="1.0" encoding="UTF-8"?>
<svg width="512px" height="512px" viewBox="0 0 512 512" xmlns="http://www.w3.org/2000/svg" xmlns:xlink="http://www.w3.org/1999/xlink" version="1.1">
 <!-- Generated by Pixelmator Pro 1.6 -->
 <path id="Path" d="M458.359 244.515 C458.26 243.237 458.162 241.959 458.162 240.681 L458.162 240.583 457.867 236.749 457.867 236.651 C456.829 225.264 454.823 213.987 451.871 202.941 451.871 202.842 451.871 202.842 451.772 202.744 L450.888 199.467 C450.789 199.27 450.789 199.074 450.691 198.975 450.396 197.992 450.101 196.911 449.806 195.928 449.708 195.731 449.708 195.437 449.61 195.24 449.315 194.257 449.02 193.274 448.725 192.389 448.627 192.094 448.528 191.898 448.43 191.57 448.135 190.587 447.84 189.702 447.447 188.719 L447.152 187.834 C446.857 186.95 446.464 185.967 446.169 185.082 446.088 184.803 445.99 184.529 445.874 184.263 445.481 183.378 445.186 182.395 444.793 181.51 444.694 181.314 444.596 181.019 444.498 180.822 444.104 179.839 443.679 178.954 443.318 177.971 443.318 177.873 443.22 177.775 443.22 177.676 441.942 174.531 440.566 171.385 439.124 168.337 L438.829 167.748 C438.436 166.928 438.141 166.273 437.748 165.585 437.551 165.192 437.354 164.7 437.158 164.307 436.863 163.619 436.47 163.029 436.175 162.341 435.88 161.849 435.683 161.358 435.356 160.866 435.028 160.375 434.667 159.687 434.372 158.999 434.078 158.507 433.783 157.917 433.488 157.426 433.193 156.934 432.8 156.246 432.505 155.656 432.213 155.089 431.884 154.542 431.522 154.018 431.227 153.428 430.833 152.936 430.539 152.379 430.244 151.822 429.851 151.298 429.556 150.741 429.261 150.184 428.867 149.66 428.573 149.168 428.278 148.677 427.884 147.988 427.491 147.399 427.198 146.885 426.87 146.392 426.508 145.924 L425.328 144.179 C425.035 143.666 424.707 143.173 424.346 142.705 423.952 142.115 423.461 141.427 423.068 140.837 422.773 140.444 422.478 139.952 422.183 139.559 L420.708 137.495 C420.413 137.101 420.217 136.806 419.889 136.413 419.07 135.332 418.414 134.349 417.628 133.366 411.737 125.642 405.3 118.349 398.369 111.542 393.682 106.656 388.677 102.085 383.385 97.862 380.109 95.011 376.701 92.357 373.162 89.801 366.825 85.082 360.081 80.937 353.01 77.414 351.043 76.333 349.077 75.35 347.111 74.367 332.646 67.286 317.408 61.909 301.703 58.344 300.13 58.049 298.557 57.655 297.083 57.36 L296.984 57.36 C296.165 57.262 295.51 57.065 294.723 56.967 284.452 55.037 274.042 53.941 263.594 53.69 L254.886 53.69 C242.363 53.839 229.884 55.21 217.629 57.786 190.112 63.586 165.831 75.186 149.709 89.735 148.824 90.554 148.136 91.111 147.743 91.505 L147.349 91.898 147.456 91.898 147.358 91.996 147.456 91.898 C147.482 91.898 147.507 91.888 147.525 91.869 147.544 91.851 147.554 91.826 147.554 91.8 L147.456 91.898 C147.509 91.844 147.578 91.81 147.653 91.8 159.646 84.623 176.259 78.692 188.154 75.776 L192.971 74.596 C193.266 74.498 193.659 74.498 193.954 74.4 195.33 74.105 196.706 73.81 198.181 73.515 198.377 73.515 198.672 73.417 198.869 73.417 251.445 63.849 307.478 79.577 346.521 116.826 354.943 124.827 362.339 133.841 368.542 143.663 393.413 183.968 391.053 234.684 371.687 264.569 343.474 307.986 280.469 322.953 241.435 284.918 228.335 272.212 220.806 254.832 220.496 236.585 220.351 227.851 222.095 219.188 225.608 211.19 226.984 208.044 236.323 190.161 240.55 191.046 229.835 188.785 209.789 193.208 195.731 214.139 183.148 232.915 183.837 261.816 191.635 282.362 186.68 272.226 183.33 261.381 181.707 250.216 171.68 182.591 217.186 124.879 258.965 110.535 236.454 90.874 179.937 92.258 137.961 123.118 113.484 141.14 95.994 166.666 86.753 197.141 88.129 180.036 94.618 154.477 107.889 128.426 93.831 135.7 75.94 158.736 67.092 179.937 54.313 210.6 49.889 247.267 53.92 282.165 54.215 284.819 54.509 287.375 54.804 290.03 71.123 385.966 154.747 459.096 255.328 459.096 367.632 459.096 458.752 367.976 458.752 255.59 458.654 251.888 458.555 248.152 458.359 244.515 Z" fill="#000000" fill-opacity="1" stroke="none"/>
</svg>
