<?xml version="1.0" encoding="UTF-8"?>
<svg width="512px" height="512px" viewBox="0 0 512 512" xmlns="http://www.w3.org/2000/svg" xmlns:xlink="http://www.w3.org/1999/xlink" version="1.1">
 <!-- Generated by Pixelmator Pro 1.5.4 -->
 <path id="Path" d="M188.334 372.245 C188.334 373.883 186.45 375.194 184.074 375.194 181.371 375.439 179.487 374.129 179.487 372.245 179.487 370.606 181.371 369.295 183.746 369.295 186.204 369.05 188.334 370.36 188.334 372.245 Z M162.857 368.558 C162.283 370.196 163.922 372.081 166.379 372.572 168.509 373.391 170.967 372.572 171.458 370.934 171.95 369.295 170.393 367.411 167.936 366.674 165.806 366.1 163.43 366.92 162.857 368.558 Z M199.065 367.165 C196.69 367.739 195.051 369.295 195.297 371.18 195.543 372.818 197.673 373.883 200.13 373.309 202.506 372.736 204.145 371.18 203.899 369.541 203.653 367.985 201.441 366.92 199.065 367.165 Z M252.969 53.248 C139.346 53.248 52.429 139.51 52.429 253.133 52.429 343.982 109.609 421.724 191.283 449.085 201.769 450.97 205.455 444.498 205.455 439.173 205.455 434.094 205.209 406.078 205.209 388.874 205.209 388.874 147.865 401.162 135.823 364.462 135.823 364.462 126.484 340.623 113.05 334.479 113.05 334.479 94.29 321.618 114.36 321.864 114.36 321.864 134.758 323.502 145.981 342.999 163.922 374.62 193.986 365.527 205.701 360.12 207.585 347.013 212.91 337.92 218.808 332.513 173.015 327.434 126.812 320.799 126.812 241.992 126.812 219.464 133.038 208.159 146.145 193.741 144.015 188.416 137.052 166.461 148.275 138.117 165.396 132.792 204.8 160.236 204.8 160.236 221.184 155.648 238.797 153.272 256.246 153.272 273.695 153.272 291.307 155.648 307.691 160.236 307.691 160.236 347.095 132.71 364.216 138.117 375.439 166.543 368.476 188.416 366.346 193.741 379.453 208.241 387.481 219.546 387.481 241.992 387.481 321.044 339.231 327.352 293.437 332.513 300.974 338.985 307.364 351.273 307.364 370.524 307.364 398.131 307.118 432.292 307.118 439.009 307.118 444.334 310.886 450.806 321.29 448.922 403.21 421.724 458.752 343.982 458.752 253.133 458.752 139.51 366.592 53.248 252.969 53.248 Z M132.055 335.79 C130.99 336.609 131.236 338.493 132.628 340.05 133.939 341.361 135.823 341.934 136.888 340.869 137.953 340.05 137.707 338.166 136.315 336.609 135.004 335.299 133.12 334.725 132.055 335.79 Z M123.208 329.155 C122.634 330.22 123.453 331.53 125.092 332.349 126.402 333.169 128.041 332.923 128.614 331.776 129.188 330.711 128.369 329.4 126.73 328.581 125.092 328.09 123.781 328.335 123.208 329.155 Z M149.75 358.318 C148.439 359.383 148.93 361.841 150.815 363.397 152.699 365.281 155.074 365.527 156.139 364.216 157.204 363.151 156.713 360.694 155.074 359.137 153.272 357.253 150.815 357.007 149.75 358.318 Z M140.411 346.276 C139.1 347.095 139.1 349.225 140.411 351.109 141.721 352.993 143.933 353.813 144.998 352.993 146.309 351.928 146.309 349.798 144.998 347.914 143.851 346.03 141.721 345.211 140.411 346.276 Z" fill="#000000" fill-opacity="1" stroke="none"/>
</svg>
