<?xml version="1.0" encoding="UTF-8"?>
<svg width="512px" height="512px" viewBox="0 0 512 512" xmlns="http://www.w3.org/2000/svg" xmlns:xlink="http://www.w3.org/1999/xlink" version="1.1">
 <!-- Generated by Pixelmator Pro 1.6 -->
 <path id="Path" d="M440.664 156.86 C407.036 91.079 334.447 53.248 255.516 53.248 158.146 53.248 76.603 121.799 56.91 213.533 78.209 175.448 127.541 148.701 179.347 148.701 244.285 148.701 278.544 188.785 279.495 189.809 297.517 209.306 306.528 231.088 306.528 257.884 306.528 266.404 302.178 279.036 294.15 289.481 292.864 291.119 288.915 293.446 288.915 298.492 288.915 302.637 291.611 306.618 296.403 309.961 319.226 325.829 362.242 323.731 362.357 323.731 379.258 323.685 395.838 319.108 410.37 310.477 440.212 293.049 458.589 261.116 458.662 226.558 459.071 190.98 445.964 167.33 440.664 156.86 Z M220.176 436.363 C204.983 426.907 191.962 414.344 181.969 399.499 154.984 360.653 153.919 321.184 165.503 288.088 173.74 262.099 190.098 239.438 212.173 223.437 260.505 186.409 289.866 218.808 293.323 222.618 292.184 219.758 290.845 216.982 289.317 214.311 281.747 201.261 269.656 184.484 242.983 170.476 215.359 155.984 185.155 155.247 179.38 155.247 147.669 155.247 115.564 165.896 91.292 184.484 75.104 196.854 56.336 217.678 52.92 245.76 52.035 255.844 50.667 297.206 71.762 342.647 108.219 420.431 189.66 466.878 275.169 458.654 243.941 453.231 221.225 436.83 220.176 436.363 Z M425.566 355.811 C423.601 354.566 421.112 354.494 419.078 355.623 413.663 358.454 408.08 360.949 402.358 363.094 384.137 369.91 364.837 373.384 345.383 373.35 270.287 373.35 204.874 321.692 204.874 255.386 204.964 247.77 206.791 240.275 210.215 233.472 197.143 245.001 186.369 258.899 178.463 274.432 166.24 298.492 151.429 346.628 189.383 398.672 194.716 405.971 208.224 423.248 235.258 437.723 254.566 448.086 275.399 453.788 293.994 453.788 322.781 453.788 388.555 426.394 427.524 364.601 428.435 363.178 428.741 361.449 428.373 359.799 428.006 358.149 426.995 356.714 425.566 355.811 Z" fill="#000000" fill-opacity="1" stroke="none"/>
</svg>
