<svg id="svg" xmlns="http://www.w3.org/2000/svg" xmlns:xlink="http://www.w3.org/1999/xlink" width="400" height="400" viewBox="0, 0, 400,400"><g id="svgg"><path id="path0" d="M190.029 42.611 C 187.610 44.044,185.103 45.471,184.457 45.784 C 183.812 46.096,182.582 46.810,181.723 47.369 C 179.975 48.509,174.674 51.621,170.674 53.855 C 169.223 54.666,163.284 58.136,157.478 61.566 C 151.672 64.996,146.525 67.990,146.041 68.219 C 145.557 68.447,144.370 69.156,143.402 69.794 C 142.434 70.432,141.240 71.155,140.748 71.401 C 140.019 71.765,132.107 76.395,127.957 78.886 C 126.362 79.843,120.705 83.073,118.182 84.468 C 112.956 87.356,110.547 88.836,110.362 89.274 C 110.254 89.528,109.910 89.736,109.597 89.736 C 109.284 89.736,105.545 91.796,101.288 94.313 C 97.031 96.830,93.152 99.077,92.669 99.305 C 92.185 99.533,90.997 100.242,90.029 100.879 C 89.062 101.517,87.874 102.240,87.390 102.486 C 85.978 103.203,78.623 107.531,76.923 108.645 C 76.067 109.206,74.971 109.853,74.487 110.083 C 74.003 110.313,71.496 111.741,68.915 113.257 C 66.334 114.772,62.771 116.811,60.997 117.788 L 57.771 119.564 57.771 200.000 L 57.771 280.436 60.997 282.212 C 62.771 283.189,66.334 285.228,68.915 286.743 C 71.496 288.259,74.003 289.687,74.487 289.917 C 74.971 290.147,76.067 290.794,76.923 291.355 C 78.623 292.469,85.978 296.797,87.390 297.514 C 87.874 297.760,89.062 298.483,90.029 299.121 C 90.997 299.758,92.185 300.467,92.669 300.695 C 93.152 300.923,97.031 303.170,101.288 305.687 C 105.545 308.204,109.284 310.264,109.597 310.264 C 109.910 310.264,110.254 310.472,110.362 310.726 C 110.547 311.164,112.956 312.644,118.182 315.532 C 120.705 316.927,126.362 320.157,127.957 321.114 C 132.107 323.605,140.019 328.235,140.748 328.599 C 141.240 328.845,142.434 329.568,143.402 330.206 C 144.370 330.844,145.557 331.553,146.041 331.781 C 146.525 332.010,151.672 335.004,157.478 338.434 C 163.284 341.864,169.223 345.334,170.674 346.145 C 174.674 348.379,179.975 351.491,181.723 352.631 C 182.582 353.190,183.812 353.904,184.457 354.216 C 185.103 354.529,187.610 355.956,190.029 357.389 L 194.428 359.994 194.577 279.997 C 194.659 235.999,194.659 164.001,194.577 120.003 L 194.428 40.006 190.029 42.611 M205.279 200.000 L 205.279 360.167 208.065 358.562 C 209.597 357.679,211.835 356.348,213.038 355.604 C 214.241 354.861,215.384 354.252,215.578 354.252 C 215.772 354.252,217.295 353.370,218.962 352.291 C 222.855 349.773,228.101 346.628,228.408 346.628 C 228.539 346.628,234.144 343.381,240.863 339.413 C 247.582 335.445,253.475 332.011,253.959 331.782 C 254.443 331.553,255.630 330.844,256.598 330.206 C 257.566 329.568,258.760 328.845,259.252 328.599 C 259.981 328.235,267.893 323.605,272.043 321.114 C 273.638 320.157,279.295 316.927,281.818 315.532 C 287.044 312.644,289.453 311.164,289.638 310.726 C 289.746 310.472,290.090 310.264,290.403 310.264 C 290.716 310.264,294.455 308.204,298.712 305.687 C 302.969 303.170,306.848 300.923,307.331 300.695 C 307.815 300.467,309.003 299.758,309.971 299.121 C 310.938 298.483,312.126 297.760,312.610 297.514 C 314.022 296.797,321.377 292.469,323.077 291.355 C 323.933 290.794,325.029 290.147,325.513 289.917 C 325.997 289.687,328.504 288.259,331.085 286.743 C 333.666 285.228,337.229 283.189,339.003 282.212 L 342.229 280.436 342.229 200.000 L 342.229 119.564 339.003 117.788 C 337.229 116.811,333.666 114.772,331.085 113.257 C 328.504 111.741,325.997 110.313,325.513 110.083 C 325.029 109.853,323.933 109.206,323.077 108.645 C 321.377 107.531,314.022 103.203,312.610 102.486 C 312.126 102.240,310.938 101.517,309.971 100.879 C 309.003 100.242,307.815 99.533,307.331 99.305 C 306.848 99.077,302.969 96.830,298.712 94.313 C 294.455 91.796,290.716 89.736,290.403 89.736 C 290.090 89.736,289.746 89.528,289.638 89.274 C 289.453 88.836,287.044 87.356,281.818 84.468 C 279.295 83.073,273.638 79.843,272.043 78.886 C 267.893 76.395,259.981 71.765,259.252 71.401 C 258.760 71.155,257.566 70.432,256.598 69.794 C 255.630 69.156,254.443 68.447,253.959 68.218 C 253.475 67.989,247.582 64.555,240.863 60.587 C 234.144 56.619,228.539 53.372,228.408 53.372 C 228.101 53.372,222.855 50.227,218.962 47.709 C 217.295 46.630,215.772 45.748,215.578 45.748 C 215.384 45.748,214.241 45.139,213.038 44.396 C 211.835 43.652,209.597 42.321,208.065 41.438 L 205.279 39.833 205.279 200.000 " stroke="none" fill="#000000" fill-rule="evenodd"></path></g></svg>