<svg id="svg" xmlns="http://www.w3.org/2000/svg" xmlns:xlink="http://www.w3.org/1999/xlink" width="400" height="400" viewBox="0, 0, 400,400"><g id="svgg"><path id="path0" d="M182.422 40.589 C 173.304 41.643,161.314 43.811,155.859 45.392 C 149.547 47.221,138.555 51.057,134.375 52.889 C 127.773 55.782,117.173 61.446,112.500 64.577 C 110.996 65.585,108.367 67.343,106.658 68.483 C 104.949 69.624,103.165 70.941,102.694 71.411 C 102.223 71.881,100.641 73.145,99.180 74.219 C 88.374 82.159,68.423 105.582,60.914 119.141 C 57.550 125.215,52.344 135.603,52.344 136.240 C 52.344 136.513,51.656 138.226,50.815 140.048 C 49.182 143.587,46.223 152.349,44.289 159.375 C 43.232 163.213,42.495 166.936,39.817 181.966 C 36.756 199.142,40.145 232.386,47.031 252.734 C 51.789 266.792,63.900 290.329,69.029 295.486 C 69.576 296.035,70.352 297.070,70.754 297.786 C 83.203 319.970,126.453 348.196,160.156 356.134 C 172.297 358.993,174.546 359.379,183.594 360.154 C 208.998 362.331,230.891 359.889,253.057 352.406 C 296.505 337.738,329.842 305.619,349.211 259.766 C 375.294 198.019,353.612 117.905,299.219 75.046 C 296.426 72.845,293.609 70.616,292.959 70.093 C 290.440 68.064,278.937 60.997,271.359 56.823 C 263.718 52.615,243.834 45.737,232.813 43.491 C 229.590 42.834,225.020 41.900,222.656 41.416 C 217.261 40.311,189.725 39.745,182.422 40.589 M212.427 57.825 C 219.477 58.253,226.508 58.932,228.052 59.333 C 229.596 59.734,233.145 60.635,235.938 61.335 C 249.102 64.634,276.117 76.883,279.688 81.171 C 279.902 81.430,281.836 82.861,283.984 84.352 C 293.482 90.944,304.744 101.941,314.077 113.735 C 317.054 117.497,325.836 132.277,328.662 138.281 C 334.854 151.440,337.546 160.035,341.365 178.854 C 343.939 191.540,342.618 223.947,339.100 234.375 C 338.738 235.449,337.846 238.438,337.118 241.016 C 318.952 305.351,253.251 350.382,187.109 343.833 C 75.994 332.831,18.905 211.749,81.170 119.141 C 83.481 115.703,85.596 112.715,85.870 112.500 C 86.144 112.285,87.587 110.527,89.077 108.594 C 94.191 101.956,103.801 92.823,114.844 84.107 C 125.803 75.457,150.535 63.989,164.453 61.104 C 166.602 60.658,170.429 59.875,172.959 59.364 C 175.488 58.852,182.168 58.171,187.802 57.850 C 193.437 57.529,198.398 57.217,198.828 57.156 C 199.258 57.095,205.377 57.396,212.427 57.825 M171.094 125.391 L 171.094 136.719 200.781 136.719 L 230.469 136.719 230.469 125.391 L 230.469 114.063 200.781 114.063 L 171.094 114.063 171.094 125.391 M171.094 156.641 L 171.094 167.969 200.781 167.969 L 230.469 167.969 230.469 156.641 L 230.469 145.313 200.781 145.313 L 171.094 145.313 171.094 156.641 M171.094 191.797 L 171.094 208.594 150.199 208.594 L 129.303 208.594 164.844 244.141 C 184.391 263.691,200.739 279.688,201.172 279.688 C 201.605 279.688,217.953 263.691,237.500 244.141 L 273.040 208.594 251.755 208.594 L 230.469 208.594 230.469 191.797 L 230.469 175.000 200.781 175.000 L 171.094 175.000 171.094 191.797 " stroke="none" fill="#000000" fill-rule="evenodd"></path></g></svg>