<svg id="svg" xmlns="http://www.w3.org/2000/svg" xmlns:xlink="http://www.w3.org/1999/xlink" width="400" height="400" viewBox="0, 0, 400,400"><g id="svgg"><path id="path0" d="M237.109 57.940 C 224.062 58.751,212.723 60.772,199.776 64.592 C 194.528 66.141,187.797 68.081,184.817 68.903 C 181.838 69.725,177.521 71.258,175.224 72.308 C 172.927 73.359,170.890 74.219,170.697 74.219 C 170.504 74.219,167.719 75.449,164.506 76.953 C 161.294 78.457,158.317 79.688,157.890 79.688 C 156.780 79.688,148.177 84.819,145.472 87.095 C 144.215 88.153,142.346 89.342,141.320 89.738 C 140.293 90.133,136.345 92.780,132.547 95.619 C 128.748 98.458,124.881 100.782,123.953 100.782 C 123.025 100.783,121.244 101.662,119.996 102.735 C 118.747 103.809,117.429 104.688,117.066 104.688 C 116.703 104.688,116.406 105.215,116.406 105.859 C 116.406 106.504,115.868 107.031,115.210 107.031 C 114.552 107.031,113.811 107.559,113.564 108.203 C 113.316 108.848,112.604 109.375,111.980 109.375 C 111.356 109.375,111.047 109.701,111.293 110.100 C 111.540 110.499,111.075 111.037,110.260 111.295 C 109.446 111.554,108.031 112.370,107.117 113.109 C 106.202 113.848,104.582 115.156,103.516 116.016 C 102.451 116.875,101.575 117.840,101.571 118.160 C 101.566 118.480,97.584 122.699,92.721 127.535 C 87.858 132.371,82.849 137.716,81.588 139.412 C 78.202 143.970,74.334 147.656,72.937 147.656 C 72.177 147.656,71.876 148.094,72.148 148.803 C 72.390 149.434,72.252 150.158,71.841 150.412 C 71.430 150.666,71.094 151.353,71.094 151.938 C 71.094 152.524,69.335 155.755,67.184 159.119 C 62.476 166.484,60.793 169.886,55.266 183.203 C 43.126 212.452,44.366 249.635,58.103 268.347 C 72.864 288.453,94.240 294.647,119.141 286.035 C 121.719 285.143,124.443 284.405,125.195 284.394 C 125.947 284.384,126.563 284.039,126.563 283.629 C 126.563 283.219,127.797 282.652,129.306 282.369 C 130.814 282.086,132.241 281.542,132.477 281.161 C 132.712 280.780,133.430 280.469,134.071 280.469 C 140.235 280.469,176.563 254.288,176.563 249.846 C 176.563 249.434,177.909 247.806,179.554 246.228 C 184.760 241.237,193.012 227.260,199.583 212.305 C 200.857 209.404,202.175 207.031,202.512 207.031 C 202.849 207.031,203.123 206.592,203.121 206.055 C 203.117 205.085,206.953 194.720,208.976 190.234 C 209.558 188.945,211.121 184.551,212.451 180.469 C 213.781 176.387,215.154 172.597,215.502 172.048 C 216.499 170.475,221.906 173.283,225.686 177.337 C 227.457 179.236,228.906 180.349,228.906 179.810 C 228.906 179.147,230.110 178.860,232.617 178.926 C 234.658 178.979,238.182 178.696,240.448 178.297 C 245.244 177.452,244.502 179.531,239.341 181.397 C 236.272 182.507,235.472 185.938,238.281 185.938 C 239.141 185.938,239.844 185.624,239.844 185.242 C 239.844 184.859,240.986 184.374,242.383 184.164 C 243.779 183.954,249.434 182.158,254.949 180.173 C 260.465 178.187,265.931 176.562,267.098 176.563 C 268.264 176.563,269.560 176.221,269.978 175.803 C 270.395 175.386,273.015 174.690,275.798 174.258 C 278.582 173.826,284.199 172.940,288.281 172.289 C 300.207 170.386,307.736 171.937,307.791 176.308 C 307.888 183.977,306.315 186.189,290.625 200.446 C 286.973 203.765,282.032 208.275,279.646 210.467 C 277.259 212.659,274.095 215.475,272.614 216.724 C 260.529 226.917,250.000 236.279,250.000 236.832 C 250.000 237.199,249.598 237.500,249.108 237.500 C 248.208 237.500,239.682 244.397,239.186 245.527 C 239.039 245.862,237.632 246.802,236.061 247.617 C 234.489 248.431,231.094 250.916,228.516 253.138 C 225.938 255.360,222.686 257.738,221.289 258.421 C 219.893 259.105,218.750 259.923,218.750 260.238 C 218.750 260.554,215.498 263.176,211.523 266.065 C 207.549 268.954,202.363 272.971,200.000 274.993 C 197.637 277.014,194.648 279.228,193.359 279.912 C 192.070 280.597,189.609 282.451,187.891 284.034 C 186.172 285.616,182.943 288.094,180.716 289.540 C 178.488 290.986,176.456 292.509,176.200 292.924 C 175.943 293.339,171.262 297.093,165.796 301.266 C 160.331 305.439,155.578 309.322,155.235 309.895 C 154.891 310.469,154.237 310.938,153.781 310.938 C 152.993 310.937,147.772 315.056,142.638 319.727 C 141.339 320.908,139.889 321.875,139.415 321.875 C 137.934 321.875,135.002 325.572,135.288 327.079 C 135.784 329.697,139.159 329.198,142.667 325.988 C 145.727 323.187,146.770 322.496,153.124 319.057 C 154.628 318.244,156.065 317.298,156.318 316.955 C 156.571 316.613,157.200 316.840,157.714 317.460 C 158.480 318.383,158.148 318.898,155.888 320.295 C 154.368 321.234,153.125 322.263,153.125 322.582 C 153.125 323.455,145.300 331.061,142.371 333.035 C 137.637 336.226,138.017 340.854,143.126 342.230 C 147.014 343.277,154.662 341.772,161.007 338.711 C 163.278 337.615,165.761 336.719,166.525 336.719 C 168.193 336.719,181.107 329.023,185.678 325.305 C 187.469 323.848,189.273 322.656,189.686 322.656 C 190.297 322.656,196.904 317.936,200.428 314.982 C 200.879 314.604,203.085 313.004,205.330 311.426 C 207.576 309.847,210.060 307.949,210.852 307.208 C 213.717 304.524,221.705 298.437,222.368 298.434 C 222.741 298.432,225.156 296.567,227.734 294.290 C 230.313 292.012,233.745 289.346,235.361 288.364 C 236.978 287.382,238.640 285.946,239.054 285.172 C 239.468 284.399,241.485 282.655,243.536 281.297 C 245.587 279.940,249.727 276.539,252.734 273.739 C 275.984 252.100,284.318 244.467,293.668 236.247 C 298.994 231.565,305.762 225.848,308.707 223.541 C 311.653 221.235,314.063 219.054,314.063 218.695 C 314.063 218.336,315.347 217.433,316.917 216.688 C 318.487 215.943,320.936 214.168,322.359 212.745 C 323.783 211.321,325.156 210.156,325.410 210.156 C 326.341 210.156,343.911 191.799,345.005 189.683 C 345.626 188.483,346.446 187.500,346.828 187.500 C 348.700 187.500,353.906 174.487,353.906 169.807 C 353.906 161.526,352.301 158.438,346.025 154.646 C 341.353 151.823,340.773 151.236,341.867 150.436 C 344.819 148.277,342.880 146.516,336.889 145.918 C 331.252 145.355,328.763 144.500,326.672 142.409 C 325.941 141.678,323.988 141.353,320.797 141.431 C 318.167 141.496,312.676 141.150,308.594 140.662 C 298.426 139.448,277.683 141.059,258.984 144.514 L 251.172 145.958 248.522 143.948 L 245.871 141.938 248.522 139.759 C 249.979 138.560,252.051 137.123,253.125 136.565 C 254.199 136.006,255.254 135.354,255.469 135.116 C 256.500 133.973,261.659 131.250,262.794 131.250 C 263.499 131.250,267.450 129.302,271.574 126.921 C 281.373 121.264,289.507 117.187,290.996 117.188 C 291.651 117.188,292.188 116.836,292.188 116.406 C 292.188 115.977,292.891 115.625,293.750 115.625 C 294.609 115.625,295.313 115.273,295.313 114.844 C 295.313 114.414,295.714 114.063,296.204 114.063 C 297.143 114.063,302.960 111.378,321.048 102.596 C 335.058 95.794,336.828 92.600,324.658 96.080 C 321.680 96.932,319.085 97.470,318.891 97.277 C 318.698 97.083,320.169 96.489,322.161 95.957 C 324.152 95.424,325.781 94.758,325.781 94.475 C 325.781 94.193,327.451 93.341,329.492 92.582 C 331.533 91.822,333.537 90.895,333.945 90.522 C 334.354 90.149,335.408 89.833,336.289 89.819 C 337.170 89.806,339.648 88.930,341.797 87.873 C 343.945 86.816,346.168 85.949,346.735 85.945 C 347.303 85.941,348.264 85.442,348.870 84.835 C 349.476 84.229,350.377 83.598,350.871 83.434 C 354.050 82.374,350.500 79.506,346.596 79.981 C 344.386 80.250,341.172 80.640,339.453 80.848 L 336.328 81.226 339.063 80.375 C 349.713 77.063,350.483 76.057,346.743 70.344 C 343.874 65.961,343.085 65.735,337.038 67.570 C 334.929 68.210,332.390 68.737,331.397 68.742 C 328.933 68.753,308.296 75.535,303.737 77.831 C 301.710 78.852,299.647 79.688,299.151 79.688 C 298.286 79.688,282.039 87.279,272.258 92.253 C 269.676 93.566,265.808 95.928,263.664 97.503 C 261.520 99.077,258.632 100.766,257.245 101.256 C 252.128 103.065,234.280 114.467,227.785 120.077 L 221.086 125.863 220.309 123.818 C 219.881 122.693,219.530 121.357,219.528 120.848 C 219.523 119.261,216.482 114.844,215.395 114.844 C 212.350 114.844,211.558 116.660,212.891 120.584 C 214.168 124.347,213.325 135.336,211.681 136.352 C 211.352 136.555,211.255 136.066,211.464 135.265 C 211.862 133.741,209.569 132.233,208.587 133.373 C 207.951 134.111,205.106 147.342,203.836 155.469 C 203.332 158.691,201.742 165.020,200.303 169.531 C 198.863 174.043,197.679 178.197,197.671 178.761 C 197.651 180.140,194.403 187.632,194.000 187.229 C 193.825 187.054,194.400 183.384,195.278 179.075 C 196.982 170.715,197.174 166.072,196.366 152.856 C 195.873 144.802,195.797 144.531,194.034 144.531 C 192.222 144.531,192.213 144.580,192.338 153.711 C 192.432 160.560,192.145 163.684,191.209 166.016 L 189.954 169.141 189.899 166.602 C 189.869 165.205,190.195 164.063,190.625 164.063 C 191.076 164.063,191.406 161.589,191.406 158.203 C 191.406 152.520,191.349 152.344,189.509 152.344 C 187.776 152.344,187.572 152.730,187.140 156.836 C 185.276 174.546,178.066 200.020,173.264 205.859 C 172.911 206.289,170.271 209.946,167.399 213.985 C 150.703 237.464,115.852 260.211,105.205 254.579 C 96.457 249.951,87.500 240.785,87.500 236.461 C 87.500 235.743,87.148 235.156,86.719 235.156 C 86.289 235.156,85.938 233.926,85.938 232.422 C 85.938 230.918,85.674 229.687,85.352 229.686 C 85.029 229.685,84.695 226.873,84.609 223.436 C 84.520 219.897,84.774 217.188,85.195 217.188 C 85.603 217.188,85.938 215.626,85.938 213.718 C 85.938 211.810,86.289 210.031,86.719 209.766 C 87.148 209.500,87.500 208.585,87.500 207.732 C 87.500 206.078,92.512 191.806,93.783 189.844 C 94.200 189.199,94.752 188.145,95.010 187.500 C 95.665 185.866,97.568 181.873,98.362 180.469 C 100.272 177.089,102.344 172.377,102.344 171.411 C 102.344 170.807,102.654 170.313,103.034 170.313 C 103.413 170.312,103.931 169.697,104.183 168.945 C 104.613 167.664,105.822 165.614,107.267 163.715 C 107.612 163.261,109.266 160.781,110.943 158.203 C 112.620 155.625,114.799 152.568,115.785 151.410 C 116.771 150.252,118.453 148.143,119.522 146.723 C 121.990 143.443,142.081 123.399,147.561 118.750 C 152.090 114.907,152.211 114.786,155.056 111.228 C 156.165 109.841,158.873 108.028,161.318 107.036 C 163.687 106.074,165.625 104.977,165.625 104.597 C 165.625 104.217,166.307 103.906,167.141 103.906 C 167.975 103.906,168.875 103.555,169.141 103.125 C 169.406 102.695,170.482 102.344,171.530 102.344 C 172.579 102.344,173.438 101.992,173.438 101.563 C 173.438 101.133,174.107 100.781,174.925 100.781 C 175.743 100.781,178.995 99.869,182.152 98.754 C 185.308 97.639,188.499 96.738,189.242 96.751 C 189.986 96.765,190.798 96.446,191.046 96.044 C 191.295 95.642,192.336 95.313,193.359 95.313 C 194.383 95.313,195.419 94.992,195.661 94.599 C 195.904 94.207,197.518 93.647,199.249 93.354 C 200.981 93.062,203.421 92.311,204.673 91.687 C 205.925 91.062,209.162 90.195,211.865 89.760 C 218.110 88.754,220.703 87.515,220.703 85.536 C 220.703 83.850,219.787 83.717,214.453 84.634 L 211.328 85.171 213.905 84.013 C 215.322 83.377,218.134 82.650,220.155 82.398 C 222.175 82.146,225.059 81.788,226.563 81.603 C 229.710 81.216,235.814 80.361,253.906 77.772 C 260.996 76.758,268.291 76.108,270.117 76.327 C 273.276 76.707,273.438 76.628,273.438 74.691 C 273.438 72.877,273.134 72.656,270.636 72.656 C 265.733 72.656,237.200 74.221,234.866 74.618 C 232.941 74.945,232.760 74.832,233.594 73.828 C 234.129 73.183,235.332 72.656,236.268 72.656 C 237.203 72.656,238.303 72.337,238.711 71.946 C 240.650 70.090,248.732 68.638,259.570 68.199 C 272.770 67.664,273.003 67.493,267.730 62.220 C 262.409 56.899,259.770 56.530,237.109 57.940 M208.129 169.604 C 207.259 173.827,205.469 177.651,205.469 175.286 C 205.469 174.842,205.728 174.220,206.045 173.903 C 206.362 173.586,206.642 172.913,206.667 172.406 C 206.818 169.438,208.074 164.132,208.555 164.429 C 208.868 164.622,208.676 166.951,208.129 169.604 " stroke="none" fill="#000000" fill-rule="evenodd"></path></g></svg>