<?xml version="1.0" standalone="no"?>
<!DOCTYPE svg PUBLIC "-//W3C//DTD SVG 20010904//EN"
 "http://www.w3.org/TR/2001/REC-SVG-20010904/DTD/svg10.dtd">
<svg version="1.0" xmlns="http://www.w3.org/2000/svg"
 width="512.000000pt" height="512.000000pt" viewBox="0 0 512.000000 512.000000"
 preserveAspectRatio="xMidYMid meet">

<g transform="translate(0.000000,512.000000) scale(0.100000,-0.100000)"
fill="#000000" stroke="none">
<path d="M2375 4580 c-483 -44 -923 -255 -1265 -607 -229 -234 -380 -482 -479
-783 -71 -220 -96 -378 -96 -630 1 -212 13 -322 60 -505 290 -1138 1493 -1792
2610 -1419 291 97 539 250 768 474 324 315 516 687 593 1145 21 126 24 441 5
575 -61 433 -252 826 -555 1139 -315 324 -713 530 -1154 596 -122 19 -369 26
-487 15z m588 -1031 c551 -111 947 -596 947 -1159 0 -510 -322 -956 -810
-1122 -234 -79 -512 -78 -755 3 -395 132 -700 485 -780 901 -21 109 -21 327 0
436 26 133 25 133 68 64 99 -160 277 -266 467 -279 325 -20 602 223 626 551
15 210 -100 436 -274 536 -55 32 -75 50 -54 50 4 0 48 9 97 19 128 28 334 28
468 0z"/>
</g>
</svg>
