<svg id="svg" xmlns="http://www.w3.org/2000/svg" xmlns:xlink="http://www.w3.org/1999/xlink" width="400" height="400" viewBox="0, 0, 400,400"><g id="svgg"><path id="path0" d="M101.760 43.454 C 95.955 44.748,94.864 45.112,89.900 47.420 C 74.171 54.732,63.446 69.455,59.789 88.751 C 58.823 93.849,58.872 198.674,59.843 205.050 C 59.956 205.793,60.232 226.704,60.456 251.520 C 60.956 306.852,60.963 306.905,69.123 314.460 C 74.429 319.372,78.276 320.744,87.840 321.132 L 95.360 321.438 95.344 317.999 C 95.335 316.107,95.062 292.672,94.736 265.920 C 92.722 100.305,92.712 85.304,94.620 80.507 C 97.883 72.299,104.409 70.600,114.023 75.455 C 120.836 78.896,310.699 185.949,314.185 188.315 C 323.814 194.853,331.505 205.699,334.042 216.317 C 335.650 223.052,335.643 223.048,337.841 218.181 C 346.967 197.979,341.433 172.221,324.665 156.857 C 319.335 151.972,323.496 154.440,222.080 96.021 C 215.216 92.068,207.728 87.737,205.440 86.399 C 203.152 85.060,190.192 77.575,176.640 69.766 C 163.088 61.956,149.651 54.146,146.779 52.410 C 131.874 43.398,116.098 40.260,101.760 43.454 M138.005 137.073 C 137.531 142.610,135.508 265.001,135.885 265.378 C 136.051 265.544,162.736 250.507,195.185 231.964 C 227.634 213.420,253.944 198.019,253.652 197.741 C 253.027 197.146,140.636 133.903,139.275 133.380 C 138.551 133.102,138.277 133.897,138.005 137.073 M218.240 269.575 C 164.208 301.239,117.696 328.271,114.880 329.647 C 104.592 334.671,92.995 336.059,82.428 333.530 C 76.403 332.088,76.437 332.313,83.352 339.592 C 99.980 357.098,127.877 362.251,147.431 351.429 C 188.247 328.840,312.542 255.695,316.199 252.113 C 326.455 242.068,326.945 224.953,317.319 213.042 C 316.571 212.116,305.826 218.247,218.240 269.575 " stroke="none" fill="#000000" fill-rule="evenodd"></path></g></svg>