<svg id="svg" xmlns="http://www.w3.org/2000/svg" xmlns:xlink="http://www.w3.org/1999/xlink" width="400" height="400" viewBox="0, 0, 400,400"><g id="svgg"><path id="path0" d="M100.923 43.935 C 99.908 44.312,97.831 45.755,96.308 47.140 L 93.538 49.660 93.538 115.948 L 93.538 182.236 71.486 182.098 C 47.591 181.947,45.526 182.396,43.093 188.268 C 40.421 194.720,42.322 199.047,52.359 209.361 L 61.608 218.865 58.433 223.544 L 55.258 228.223 55.832 255.958 C 56.148 271.212,56.391 284.800,56.373 286.154 C 56.356 287.508,56.264 294.339,56.170 301.334 L 56.000 314.052 60.019 317.641 L 64.039 321.231 106.173 321.144 C 129.347 321.097,149.415 320.614,150.769 320.071 C 154.845 318.436,158.848 321.484,175.571 338.955 C 199.201 363.642,198.778 363.640,222.345 339.228 C 240.959 319.947,242.831 318.503,247.105 320.128 C 252.288 322.098,331.882 321.514,335.822 319.477 C 341.914 316.327,342.154 314.437,342.154 269.652 L 342.154 228.036 339.210 223.699 L 336.267 219.361 344.730 210.963 C 357.422 198.369,359.452 191.916,352.925 184.923 C 350.429 182.249,349.578 182.154,328.093 182.154 L 305.846 182.154 305.846 116.336 L 305.846 50.518 302.434 47.105 L 299.022 43.692 200.895 43.471 C 146.926 43.349,101.938 43.558,100.923 43.935 M294.154 124.308 L 294.154 193.231 319.469 193.231 L 344.785 193.231 331.526 206.769 L 318.268 220.308 306.211 220.308 L 294.154 220.308 294.135 207.692 C 294.107 188.671,294.169 188.712,266.521 189.538 C 240.730 190.309,241.231 189.941,241.231 208.136 L 241.231 220.308 197.231 220.359 C 173.031 220.387,136.892 220.384,116.923 220.352 L 80.615 220.293 67.692 207.070 L 54.769 193.846 79.692 193.513 L 104.615 193.180 104.615 124.282 L 104.615 55.385 199.385 55.385 L 294.154 55.385 294.154 124.308 M283.347 215.692 L 283.692 230.769 306.769 231.104 L 329.846 231.439 329.846 270.181 L 329.846 308.923 291.077 308.923 L 252.308 308.923 252.308 254.769 L 252.308 200.615 267.654 200.615 L 283.001 200.615 283.347 215.692 M145.231 239.385 L 145.231 247.385 122.462 247.385 L 99.692 247.385 99.692 254.769 L 99.692 262.154 122.462 262.154 L 145.231 262.154 145.231 285.538 L 145.231 308.923 106.462 308.923 L 67.692 308.923 67.692 300.950 L 67.692 292.977 90.769 292.643 L 113.846 292.308 114.215 285.231 L 114.584 278.154 91.138 278.154 L 67.692 278.154 67.692 254.769 L 67.692 231.385 106.462 231.385 L 145.231 231.385 145.231 239.385 M237.538 270.154 L 237.538 308.923 198.769 308.923 L 160.000 308.923 160.000 285.538 L 160.000 262.154 182.769 262.154 L 205.538 262.154 205.538 254.769 L 205.538 247.385 182.769 247.385 L 160.000 247.385 160.000 239.385 L 160.000 231.385 198.769 231.385 L 237.538 231.385 237.538 270.154 M283.357 269.846 L 283.692 292.308 290.769 292.677 L 297.846 293.046 297.846 270.215 L 297.846 247.385 290.434 247.385 L 283.021 247.385 283.357 269.846 M192.000 285.538 L 192.000 292.923 198.769 292.923 L 205.538 292.923 205.538 285.538 L 205.538 278.154 198.769 278.154 L 192.000 278.154 192.000 285.538 M211.679 332.760 L 199.098 345.520 190.318 336.199 C 185.489 331.072,179.892 325.331,177.880 323.439 L 174.221 320.000 199.240 320.000 L 224.259 320.000 211.679 332.760 " stroke="none" fill="#000000" fill-rule="evenodd"></path></g></svg>