<?xml version="1.0" encoding="UTF-8"?>
<svg width="512px" height="512px" viewBox="0 0 512 512" xmlns="http://www.w3.org/2000/svg" xmlns:xlink="http://www.w3.org/1999/xlink" version="1.1">
 <!-- Generated by Pixelmator Pro 1.6 -->
 <path id="Path" d="M270.901 271.72 L240.279 241.099 181.862 330.138 Z M255.59 53.248 C143.36 53.248 52.429 144.179 52.429 256.41 52.429 368.64 143.36 459.571 255.59 459.571 367.821 459.571 458.752 368.64 458.752 256.41 458.752 144.179 367.821 53.248 255.59 53.248 Z M383.263 196.436 L395.37 191.414 C396.977 190.75 398.782 190.752 400.387 191.419 401.993 192.085 403.267 193.363 403.931 194.97 L403.931 194.97 C404.598 196.576 404.599 198.382 403.934 199.989 403.268 201.597 401.991 202.873 400.384 203.538 L388.301 208.544 C384.957 209.927 381.125 208.34 379.74 204.997 L379.74 204.997 C378.354 201.66 379.929 197.831 383.263 196.436 Z M303.456 123.699 L308.47 111.591 C309.864 108.258 313.694 106.682 317.03 108.069 L317.03 108.069 C320.373 109.454 321.961 113.286 320.577 116.63 L315.556 128.737 C314.171 132.08 310.339 133.668 306.995 132.284 L306.995 132.284 C305.385 131.618 304.107 130.338 303.443 128.727 302.779 127.116 302.784 125.307 303.456 123.699 Z M255.59 95.846 L255.59 95.846 C257.328 95.846 258.995 96.537 260.224 97.766 261.453 98.995 262.144 100.662 262.144 102.4 L262.144 115.507 C262.144 117.245 261.453 118.912 260.224 120.141 258.995 121.37 257.328 122.061 255.59 122.061 L255.59 122.061 C253.852 122.061 252.185 121.37 250.956 120.141 249.727 118.912 249.037 117.245 249.037 115.507 L249.037 102.4 C249.037 100.662 249.727 98.995 250.956 97.766 252.185 96.537 253.852 95.846 255.59 95.846 Z M194.15 108.069 C195.757 107.402 197.563 107.401 199.17 108.066 200.777 108.732 202.054 110.009 202.719 111.616 L207.724 123.699 C208.674 125.872 208.376 128.389 206.944 130.28 205.512 132.171 203.17 133.141 200.821 132.816 198.472 132.491 196.481 130.921 195.617 128.713 L190.595 116.605 C189.229 113.266 190.818 109.451 194.15 108.069 Z M142.066 142.877 L142.066 142.877 C144.625 140.319 148.772 140.319 151.331 142.877 L160.563 152.142 C163.104 154.698 163.104 158.826 160.563 161.382 L160.563 161.382 C158.004 163.94 153.857 163.94 151.298 161.382 L142.033 152.117 C139.499 149.554 139.51 145.426 142.057 142.877 Z M95.027 256.41 L95.027 256.41 C95.027 254.672 95.718 253.005 96.947 251.776 98.176 250.547 99.843 249.856 101.581 249.856 L114.688 249.856 C116.426 249.856 118.093 250.547 119.322 251.776 120.551 253.005 121.242 254.672 121.242 256.41 L121.242 256.41 C121.242 258.148 120.551 259.815 119.322 261.044 118.093 262.273 116.426 262.963 114.688 262.963 L101.581 262.963 C99.843 262.963 98.176 262.273 96.947 261.044 95.718 259.815 95.027 258.148 95.027 256.41 Z M127.918 316.383 L115.81 321.405 C114.203 322.069 112.399 322.067 110.793 321.401 109.188 320.734 107.913 319.456 107.25 317.85 L107.25 317.85 C106.583 316.243 106.582 314.437 107.247 312.83 107.912 311.223 109.189 309.946 110.797 309.281 L122.88 304.276 C126.223 302.892 130.056 304.48 131.441 307.823 L131.441 307.823 C132.827 311.159 131.251 314.989 127.918 316.383 Z M131.465 204.972 L131.465 204.972 C130.805 206.588 129.527 207.874 127.916 208.544 126.304 209.215 124.491 209.215 122.88 208.544 L110.772 203.53 C107.439 202.136 105.863 198.306 107.25 194.97 L107.25 194.97 C108.635 191.627 112.467 190.039 115.81 191.422 L127.918 196.444 C131.256 197.829 132.843 201.656 131.465 204.997 Z M207.724 389.12 L202.711 401.228 C201.327 404.574 197.492 406.163 194.146 404.779 190.8 403.395 189.211 399.56 190.595 396.214 L195.617 384.106 C196.481 381.898 198.472 380.329 200.821 380.003 203.17 379.678 205.512 380.648 206.944 382.539 208.376 384.43 208.674 386.947 207.724 389.12 Z M262.144 410.419 C262.144 412.157 261.453 413.824 260.224 415.053 258.995 416.282 257.328 416.973 255.59 416.973 L255.59 416.973 C253.852 416.973 252.185 416.282 250.956 415.053 249.727 413.824 249.037 412.157 249.037 410.419 L249.037 397.312 C249.037 395.574 249.727 393.907 250.956 392.678 252.185 391.449 253.852 390.758 255.59 390.758 L255.59 390.758 C257.328 390.758 258.995 391.449 260.224 392.678 261.453 393.907 262.144 395.574 262.144 397.312 Z M317.03 404.75 L317.03 404.75 C315.424 405.417 313.618 405.418 312.011 404.753 310.403 404.088 309.127 402.811 308.462 401.203 L303.456 389.12 C302.072 385.777 303.66 381.944 307.003 380.559 L307.003 380.559 C310.347 379.176 314.179 380.764 315.564 384.106 L320.586 396.214 C321.952 399.553 320.363 403.369 317.03 404.75 Z M369.115 369.943 L369.115 369.943 C366.556 372.5 362.409 372.5 359.85 369.943 L350.618 360.677 C348.077 358.121 348.077 353.993 350.618 351.437 L350.618 351.437 C353.177 348.88 357.324 348.88 359.883 351.437 L369.148 360.702 C371.682 363.265 371.671 367.393 369.123 369.943 Z M280.371 281.19 L136.266 375.734 230.81 231.629 374.915 137.085 Z M403.931 317.85 L403.931 317.85 C402.546 321.193 398.714 322.781 395.37 321.397 L383.263 316.375 C379.92 314.99 378.332 311.158 379.715 307.814 L379.715 307.814 C380.382 306.204 381.662 304.926 383.273 304.262 384.884 303.598 386.693 303.603 388.301 304.276 L400.408 309.289 C403.742 310.684 405.318 314.513 403.931 317.85 Z M409.6 262.963 L396.493 262.963 C394.755 262.963 393.088 262.273 391.859 261.044 390.63 259.815 389.939 258.148 389.939 256.41 L389.939 256.41 C389.939 254.672 390.63 253.005 391.859 251.776 393.088 250.547 394.755 249.856 396.493 249.856 L409.6 249.856 C411.338 249.856 413.005 250.547 414.234 251.776 415.463 253.005 416.154 254.672 416.154 256.41 L416.154 256.41 C416.154 258.148 415.463 259.815 414.234 261.044 413.005 262.273 411.338 262.963 409.6 262.963 Z" fill="#000000" fill-opacity="1" stroke="none"/>
</svg>
