<?xml version="1.0" standalone="no"?>
<!DOCTYPE svg PUBLIC "-//W3C//DTD SVG 20010904//EN"
 "http://www.w3.org/TR/2001/REC-SVG-20010904/DTD/svg10.dtd">
<svg version="1.0" xmlns="http://www.w3.org/2000/svg"
 width="512.000000pt" height="512.000000pt" viewBox="0 0 512.000000 512.000000"
 preserveAspectRatio="xMidYMid meet">

<g transform="translate(0.000000,512.000000) scale(0.100000,-0.100000)"
fill="#000000" stroke="none">
<path d="M992 4333 l-74 -66 493 -493 494 -494 -55 -55 -55 -55 -490 490
c-269 269 -493 490 -497 490 -4 0 -34 -32 -68 -72 l-60 -72 274 -276 c285
-286 332 -344 402 -495 38 -83 65 -171 95 -315 21 -95 23 -134 23 -395 1 -267
-1 -299 -23 -405 -70 -340 -129 -436 -483 -796 -137 -138 -248 -255 -248 -260
0 -12 119 -144 130 -144 5 0 26 17 47 38 98 98 665 688 830 861 l70 75 57 -49
c31 -27 55 -52 54 -57 -2 -4 -50 -56 -108 -115 -58 -59 -236 -243 -395 -408
-159 -165 -325 -336 -368 -380 l-78 -80 57 -52 c105 -94 68 -112 362 179 284
281 365 345 529 411 153 62 343 87 663 87 353 0 517 -25 687 -105 156 -73 231
-133 501 -399 l252 -249 28 24 c15 13 48 44 75 69 l47 45 -502 502 -503 503
50 50 c27 27 53 50 58 50 5 0 230 -223 501 -495 271 -272 498 -495 504 -495
13 0 132 131 132 145 0 6 -108 118 -241 250 -324 323 -390 423 -464 698 -41
150 -55 294 -55 550 0 393 45 588 176 775 26 37 176 196 332 354 326 328 305
285 202 398 l-59 65 -483 -482 c-266 -266 -486 -485 -489 -488 -3 -2 -29 19
-57 48 l-53 53 486 490 485 489 -66 63 -66 64 -252 -250 c-316 -314 -408 -380
-637 -458 -201 -68 -372 -89 -674 -81 -231 6 -335 21 -485 69 -248 79 -327
134 -656 460 -143 142 -265 258 -270 258 -5 0 -42 -30 -82 -67z m1748 -1149
c165 -48 326 -184 398 -336 22 -46 46 -108 53 -138 18 -78 15 -251 -5 -330
-53 -198 -220 -378 -418 -447 -64 -23 -89 -26 -208 -27 -187 0 -267 25 -402
127 -75 56 -153 147 -191 222 -50 99 -62 159 -61 305 1 118 4 144 26 207 35
99 68 152 144 233 106 112 225 178 363 200 76 12 235 4 301 -16z"/>
</g>
</svg>
