<?xml version="1.0" encoding="UTF-8"?>
<svg width="625px" height="625px" viewBox="0 0 625 625" xmlns="http://www.w3.org/2000/svg" xmlns:xlink="http://www.w3.org/1999/xlink" version="1.1">
 <!-- Generated by Pixelmator Pro 1.7 -->
 <g id="Layer_2_1_">
  <g id="group">
   <g id="group-1">
    <path id="Path" d="M494.357 433.908 C474.028 433.908 456.475 445.773 448.232 462.954 L375.011 452.33 C374.753 424.316 351.969 401.685 323.896 401.685 313.883 401.685 304.55 404.573 296.665 409.541 L192.618 291.652 C198.613 283.275 202.148 273.024 202.148 261.942 202.148 233.704 179.26 210.816 151.02 210.816 122.783 210.816 99.892 233.706 99.892 261.942 99.892 290.178 122.783 313.066 151.02 313.066 159.716 313.066 167.901 310.89 175.067 307.062 L280.227 426.214 C275.496 433.96 272.768 443.064 272.768 452.807 272.768 481.045 295.658 503.936 323.898 503.936 344.11 503.936 361.58 492.202 369.877 475.178 L443.248 485.828 C443.675 513.695 466.383 536.161 494.359 536.161 522.596 536.161 545.487 513.268 545.487 485.034 545.487 456.801 522.595 433.908 494.357 433.908 Z" fill="#000000" fill-opacity="1" stroke="none"/>
   </g>
  </g>
  <g id="group-2">
   <g id="group-3">
    <path id="Path-1" d="M494.357 89.041 C466.119 89.041 443.229 111.93 443.229 140.167 443.229 154.073 448.789 166.673 457.797 175.891 L344.49 335.984 C338.187 333.209 331.225 331.659 323.896 331.659 295.658 331.659 272.768 354.544 272.768 382.782 272.768 387.809 273.505 392.661 274.858 397.25 L188.767 450.548 C179.419 440.325 165.971 433.908 151.024 433.908 122.787 433.908 99.896 456.799 99.896 485.032 99.896 513.266 122.787 536.159 151.024 536.159 179.264 536.159 202.152 513.266 202.152 485.032 202.152 480.149 201.454 475.43 200.176 470.96 L286.435 417.561 C295.773 427.613 309.098 433.908 323.9 433.908 352.139 433.908 375.03 411.017 375.03 382.784 375.03 370.325 370.567 358.91 363.163 350.041 L477.535 188.447 C482.81 190.285 488.467 191.294 494.363 191.294 522.602 191.294 545.491 168.405 545.491 140.169 545.489 111.932 522.595 89.041 494.357 89.041 Z" fill="#000000" fill-opacity="1" stroke="none"/>
   </g>
  </g>
 </g>
</svg>
