<?xml version="1.0" encoding="UTF-8"?>
<!-- Generated by Pixelmator Pro 2.4.3 -->
<svg width="600" height="600" viewBox="0 0 600 600" xmlns="http://www.w3.org/2000/svg" xmlns:xlink="http://www.w3.org/1999/xlink">
    <path id="Combined-Shape-copy" fill="#6cd591" stroke="none" d="M 40 98.184265 C 40 67.761475 67.442932 46.912048 99.840714 51.678772 L 99.840714 51.678772 L 522.457458 106.876831 C 541.452515 109.671478 556.589844 130.135742 556.589844 152.422211 L 556.589844 152.422211 L 556.583374 210.106506 C 520.97406 233.96756 497.63327 273.904633 497.63327 319.14444 C 497.63327 364.818512 520.406433 404.40741 556.589844 428.186096 L 556.589844 428.186096 L 556.589844 453.55188 C 556.589844 475.837952 541.452515 496.302795 522.457458 499.097229 L 522.457458 499.097229 L 147.445068 550.320374 C 115.047112 555.089844 87.604179 534.237976 87.604179 503.814819 L 87.604179 503.814819 Z M 222.240875 151.201843 L 166.502167 151.201843 L 166.502167 224.207397 L 131.140991 224.207397 L 131.140991 266.389832 L 166.502167 266.389832 L 166.502167 347.5065 C 164.867477 398.476501 184.888977 421.299561 230.894348 421.727905 L 273.827423 421.728699 L 273.827423 379.546326 L 251.78212 379.546326 C 226.819031 378.329651 221.415802 371.028687 222.243652 338.174988 L 222.243652 266.386108 L 290.762085 266.386108 L 354.231049 421.725922 L 414.131226 421.725922 L 501.490082 224.20462 L 442.414978 224.20462 L 385.841919 360.079651 L 334.254456 224.207397 L 222.240875 224.207397 L 222.240875 151.201843 Z"/>
</svg>
