<?xml version="1.0" standalone="no"?>
<!DOCTYPE svg PUBLIC "-//W3C//DTD SVG 20010904//EN"
 "http://www.w3.org/TR/2001/REC-SVG-20010904/DTD/svg10.dtd">
<svg version="1.0" xmlns="http://www.w3.org/2000/svg"
 width="650.000000pt" height="650.000000pt" viewBox="0 0 650.000000 650.000000"
 preserveAspectRatio="xMidYMid meet">

<g transform="translate(0.000000,650.000000) scale(0.100000,-0.100000)"
fill="#000000" stroke="none">
<path d="M1230 5991 c-76 -16 -125 -56 -159 -131 -35 -77 -23 -158 33 -223 22
-25 162 -112 466 -288 239 -138 516 -298 615 -357 99 -58 201 -116 227 -130
26 -14 45 -28 43 -32 -2 -4 -57 -10 -122 -14 -183 -11 -505 -50 -713 -87 -294
-51 -578 -160 -713 -272 -50 -41 -120 -133 -155 -202 -22 -46 -94 -261 -116
-350 -8 -33 -24 -114 -35 -180 -58 -345 -75 -626 -68 -1170 6 -479 15 -610 62
-890 54 -320 130 -550 222 -672 74 -97 158 -157 317 -226 292 -126 681 -197
1313 -239 248 -17 1371 -17 1618 0 340 23 793 84 979 132 236 61 451 154 544
236 109 95 159 183 226 394 71 226 97 369 133 753 14 143 17 281 17 642 0 453
-6 576 -40 855 -49 397 -151 718 -274 862 -142 165 -530 304 -1026 368 -174
22 -476 50 -546 50 -54 0 -61 10 -20 30 15 8 38 22 52 31 14 9 84 50 155 91
72 41 175 101 230 133 118 68 344 199 615 355 107 62 210 126 227 143 47 44
67 103 60 178 -10 116 -97 194 -212 193 -71 -1 -55 6 -375 -179 -135 -79 -387
-225 -560 -325 -335 -193 -396 -229 -724 -420 -115 -66 -226 -130 -247 -141
l-39 -19 -162 94 c-90 51 -262 151 -383 221 -792 460 -1207 699 -1295 747 -71
39 -116 49 -170 39z m2300 -1721 c449 -16 767 -40 1070 -81 203 -27 253 -38
348 -75 198 -78 285 -175 347 -390 64 -219 82 -385 95 -854 15 -568 -15 -958
-95 -1233 -35 -122 -65 -176 -140 -256 -66 -70 -157 -127 -240 -150 -141 -40
-451 -90 -690 -111 -219 -19 -736 -40 -992 -40 -416 0 -896 30 -1286 80 -280
36 -335 49 -456 107 -155 74 -225 160 -285 350 -59 189 -78 345 -97 788 -30
711 35 1284 169 1491 73 112 196 199 337 237 100 27 400 76 565 92 166 16 732
46 995 53 39 1 198 -3 355 -8z"/>
<path d="M1841 3465 c-225 -49 -387 -207 -446 -435 -62 -239 76 -521 307 -630
145 -68 280 -76 427 -26 221 75 366 269 378 506 15 284 -174 525 -456 585 -86
18 -125 18 -210 0z"/>
<path d="M4445 3462 c-266 -70 -445 -293 -445 -557 0 -355 346 -631 690 -549
72 17 195 79 249 126 75 65 151 195 176 300 44 187 -14 389 -151 525 -74 73
-123 103 -226 137 -104 35 -203 41 -293 18z"/>
<path d="M2580 2128 c0 -18 117 -128 185 -173 206 -136 443 -211 701 -222 200
-8 319 16 427 88 40 27 67 63 55 75 -2 2 -27 -5 -56 -16 -79 -30 -197 -39
-377 -30 -347 19 -616 97 -856 248 -72 45 -79 48 -79 30z"/>
</g>
</svg>
