<?xml version="1.0" standalone="no"?>
<!DOCTYPE svg PUBLIC "-//W3C//DTD SVG 20010904//EN"
 "http://www.w3.org/TR/2001/REC-SVG-20010904/DTD/svg10.dtd">
<svg version="1.0" xmlns="http://www.w3.org/2000/svg"
 width="275.000000pt" height="275.000000pt" viewBox="0 0 275.000000 275.000000"
 preserveAspectRatio="xMidYMid meet">
<metadata>
Created by potrace 1.11, written by Peter Selinger 2001-2013
</metadata>
<g transform="translate(0.000000,275.000000) scale(0.100000,-0.100000)"
fill="#000000" stroke="none">
<path d="M1258 2274 c-3 -2 -22 -6 -44 -10 -58 -9 -192 -53 -249 -82 -113 -56
-227 -150 -310 -255 -36 -45 -37 -48 -14 -43 117 27 208 26 321 -3 110 -29
185 -60 429 -181 265 -131 361 -172 472 -200 117 -29 208 -37 304 -26 42 4 43
4 26 -17 -49 -66 -189 -138 -279 -143 -27 -1 -54 -4 -60 -5 -16 -5 -126 11
-189 27 -97 25 -275 100 -505 214 -339 169 -411 198 -551 224 -69 14 -195 15
-246 3 -51 -13 -137 -64 -183 -109 -46 -47 -90 -121 -90 -152 0 -8 -6 -17 -12
-19 -10 -4 -10 -6 0 -6 10 -1 10 -6 2 -22 -9 -15 -8 -24 2 -37 7 -9 8 -13 2
-9 -14 8 25 -112 55 -170 23 -46 94 -138 151 -194 42 -41 209 -179 217 -179 5
0 -22 34 -47 60 -58 58 -143 197 -170 274 -46 135 -12 233 100 292 64 34 210
27 315 -16 78 -31 123 -52 220 -103 516 -271 700 -323 920 -261 29 8 -49 -60
-111 -96 -95 -56 -167 -74 -284 -73 -133 2 -257 42 -501 164 -197 99 -249 119
-303 119 -89 0 -132 -84 -101 -198 66 -246 316 -470 605 -544 121 -31 319 -30
440 1 214 56 402 189 524 371 45 67 96 162 96 179 0 5 5 22 12 38 16 40 24 71
34 133 3 19 9 51 13 70 9 39 7 159 -3 200 -6 26 -13 60 -20 95 -28 135 -118
299 -228 415 -38 41 -145 126 -199 158 -60 36 -175 80 -257 99 -67 15 -294 28
-304 17z"/>
</g>
</svg>
